<svg xmlns="http://www.w3.org/2000/svg" width="276" height="4" viewBox="0 0 276 4">
  <g id="Group_2214" data-name="Group 2214" transform="translate(1.374)">
    <circle id="Ellipse_32" data-name="Ellipse 32" cx="2" cy="2" r="2" transform="translate(102.626)" fill="#fff"/>
    <circle id="Ellipse_16" data-name="Ellipse 16" cx="2" cy="2" r="2" transform="translate(22.626)" fill="#fff"/>
    <circle id="Ellipse_24" data-name="Ellipse 24" cx="2" cy="2" r="2" transform="translate(166.626)" fill="#fff"/>
    <circle id="Ellipse_40" data-name="Ellipse 40" cx="2" cy="2" r="2" transform="translate(222.626)" fill="#fff"/>
    <circle id="Ellipse_8" data-name="Ellipse 8" cx="2" cy="2" r="2" transform="translate(6.626)" fill="#fff"/>
    <circle id="Ellipse_28" data-name="Ellipse 28" cx="2" cy="2" r="2" transform="translate(134.626)" fill="#fff"/>
    <circle id="Ellipse_12" data-name="Ellipse 12" cx="2" cy="2" r="2" transform="translate(70.626)" fill="#fff"/>
    <circle id="Ellipse_20" data-name="Ellipse 20" cx="2" cy="2" r="2" transform="translate(198.626)" fill="#fff"/>
    <circle id="Ellipse_36" data-name="Ellipse 36" cx="2" cy="2" r="2" transform="translate(262.626)" fill="#fff"/>
    <circle id="Ellipse_30" data-name="Ellipse 30" cx="2" cy="2" r="2" transform="translate(118.626)" fill="#fff"/>
    <circle id="Ellipse_14" data-name="Ellipse 14" cx="2" cy="2" r="2" transform="translate(54.626)" fill="#fff"/>
    <circle id="Ellipse_22" data-name="Ellipse 22" cx="2" cy="2" r="2" transform="translate(182.626)" fill="#fff"/>
    <circle id="Ellipse_38" data-name="Ellipse 38" cx="2" cy="2" r="2" transform="translate(246.626)" fill="#fff"/>
    <circle id="Ellipse_6" data-name="Ellipse 6" cx="2" cy="2" r="2" transform="translate(30.626)" fill="#fff"/>
    <circle id="Ellipse_26" data-name="Ellipse 26" cx="2" cy="2" r="2" transform="translate(150.626)" fill="#fff"/>
    <circle id="Ellipse_10" data-name="Ellipse 10" cx="2" cy="2" r="2" transform="translate(86.626)" fill="#fff"/>
    <circle id="Ellipse_18" data-name="Ellipse 18" cx="2" cy="2" r="2" transform="translate(230.626)" fill="#fff"/>
    <circle id="Ellipse_31" data-name="Ellipse 31" cx="2" cy="2" r="2" transform="translate(110.626)" fill="#fff"/>
    <circle id="Ellipse_15" data-name="Ellipse 15" cx="2" cy="2" r="2" transform="translate(38.626)" fill="#fff"/>
    <circle id="Ellipse_23" data-name="Ellipse 23" cx="2" cy="2" r="2" transform="translate(174.626)" fill="#fff"/>
    <circle id="Ellipse_39" data-name="Ellipse 39" cx="2" cy="2" r="2" transform="translate(238.626)" fill="#fff"/>
    <circle id="Ellipse_7" data-name="Ellipse 7" cx="2" cy="2" r="2" transform="translate(14.626)" fill="#fff"/>
    <circle id="Ellipse_27" data-name="Ellipse 27" cx="2" cy="2" r="2" transform="translate(142.626)" fill="#fff"/>
    <circle id="Ellipse_11" data-name="Ellipse 11" cx="2" cy="2" r="2" transform="translate(78.626)" fill="#fff"/>
    <circle id="Ellipse_19" data-name="Ellipse 19" cx="2" cy="2" r="2" transform="translate(214.626)" fill="#fff"/>
    <circle id="Ellipse_35" data-name="Ellipse 35" cx="2" cy="2" r="2" transform="translate(270.626)" fill="#fff"/>
    <circle id="Ellipse_3" data-name="Ellipse 3" cx="2" cy="2" r="2" transform="translate(-1.374)" fill="#fff"/>
    <circle id="Ellipse_29" data-name="Ellipse 29" cx="2" cy="2" r="2" transform="translate(126.626)" fill="#fff"/>
    <circle id="Ellipse_13" data-name="Ellipse 13" cx="2" cy="2" r="2" transform="translate(62.626)" fill="#fff"/>
    <circle id="Ellipse_21" data-name="Ellipse 21" cx="2" cy="2" r="2" transform="translate(190.626)" fill="#fff"/>
    <circle id="Ellipse_37" data-name="Ellipse 37" cx="2" cy="2" r="2" transform="translate(254.626)" fill="#fff"/>
    <circle id="Ellipse_5" data-name="Ellipse 5" cx="2" cy="2" r="2" transform="translate(46.626)" fill="#fff"/>
    <circle id="Ellipse_25" data-name="Ellipse 25" cx="2" cy="2" r="2" transform="translate(158.626)" fill="#fff"/>
    <circle id="Ellipse_9" data-name="Ellipse 9" cx="2" cy="2" r="2" transform="translate(94.626)" fill="#fff"/>
    <circle id="Ellipse_17" data-name="Ellipse 17" cx="2" cy="2" r="2" transform="translate(206.626)" fill="#fff"/>
  </g>
</svg>
