<svg xmlns="http://www.w3.org/2000/svg" width="94.768" height="94.097">
    <defs>
        <clipPath id="clip-path">
            <path id="Path_3873" data-name="Path 3873" class="cls-1" d="m12.17 79.63 5.4 43.961a24.425 24.425 0 0 0 24.374 24.348h26.85a24.425 24.425 0 0 0 24.374-24.348l6.743-43.961z" transform="translate(-12.17 -79.63)"/>
        </clipPath>
        <style>
            .cls-1{fill:none}.cls-2{fill:#68ad45}.cls-6{fill:#fff}
        </style>
    </defs>
    <g id="Group_2244" data-name="Group 2244" transform="translate(-114.193 -1040.025)">
        <g id="Group_13316" data-name="Group 13316" transform="translate(132.193 1038.127)">
            <g id="leaf_2_" data-name="leaf (2)" transform="rotate(-160 30.183 14.744)">
                <path id="Rectangle_2150" data-name="Rectangle 2150" class="cls-1" d="M0 0h28.886v28.886H0z"/>
                <g id="Group_1711" data-name="Group 1711" transform="translate(.843 .539)">
                    <path id="Path_1066" data-name="Path 1066" class="cls-2" d="M.048 27.649a.637.637 0 0 0 .589.394c24.735 0 27.405-10.251 27.405-14.659A9.432 9.432 0 0 0 27 8.983a.636.636 0 0 0-.551-.343.676.676 0 0 0-.566.319c-1.67 2.886-6.4 10.009-14.209 13.793a.637.637 0 1 1-.558-1.146c.589-.286 1.155-.6 1.709-.919.212-.124.417-.255.625-.384.312-.194.621-.391.922-.6s.6-.408.886-.619c.091-.066.177-.134.266-.2C23.293 13.095 28.043 3.855 28.043.637a.637.637 0 1 0-1.275 0 15.066 15.066 0 0 1-2.024 5.595 11.691 11.691 0 0 0-7.536-2.408c-8.185 0-9.9 7.788-10.819 11.973a21.589 21.589 0 0 1-6.2 11.158.634.634 0 0 0-.141.694z"/>
                </g>
            </g>
            <g id="leaf_2_2" data-name="leaf (2)" transform="rotate(-32 31.383 20.434)">
                <path id="Rectangle_2150-2" data-name="Rectangle 2150" class="cls-1" d="M0 0h26.699v26.699H0z"/>
                <g id="Group_1711-2" data-name="Group 1711" transform="translate(.779 .281)">
                    <path id="Path_1066-2" data-name="Path 1066" class="cls-2" d="M.045.364A.589.589 0 0 1 .589 0C23.451 0 25.92 9.475 25.92 13.549a8.717 8.717 0 0 1-.967 4.068.588.588 0 0 1-.509.317.625.625 0 0 1-.523-.295c-1.543-2.667-5.914-9.251-13.133-12.749a.589.589 0 1 0-.516 1.059 24.04 24.04 0 0 1 1.58.849c.2.114.385.236.577.355A28.431 28.431 0 0 1 14.1 8.276c.084.061.164.124.246.186C21.53 13.816 25.92 22.357 25.92 25.331a.589.589 0 1 1-1.178 0 13.925 13.925 0 0 0-1.871-5.171 10.806 10.806 0 0 1-6.965 2.226c-7.565 0-9.15-7.2-10-11.067A19.954 19.954 0 0 0 .173 1.005.586.586 0 0 1 .045.364z"/>
                </g>
            </g>
        </g>
        <g id="Group_13312" data-name="Group 13312">
            <ellipse id="Ellipse_534" data-name="Ellipse 534" cx="46.071" cy="5.173" rx="46.071" ry="5.173" transform="translate(114.193 1123.775)" style="fill:#dddbd7"/>
            <path id="Path_3870" data-name="Path 3870" d="m12.17 79.63 5.4 43.961a24.425 24.425 0 0 0 24.374 24.348h26.85a24.425 24.425 0 0 0 24.374-24.348l6.743-43.961z" transform="translate(105.523 982.246)" style="fill:#5a9fa1"/>
            <g id="Group_13107" data-name="Group 13107" transform="translate(117.693 1061.875)" style="clip-path:url(#clip-path)">
                <path id="Path_3871" data-name="Path 3871" class="cls-6" d="m99.322 86.819-7.31 8.133-7.312-8.133a2.008 2.008 0 0 0-2.857 0l-7.284 8.133c-2.419-2.728-4.864-5.431-7.284-8.133a2.033 2.033 0 0 0-2.883 0c-2.419 2.574-4.864 5.4-7.284 8.133l-7.284-8.133a2.033 2.033 0 0 0-2.883 0c-2.574 2.574-4.864 5.4-7.284 8.133l-7.31-8.133a2.008 2.008 0 0 0-2.857 0l-7.31 8.133q-3.624-4.092-7.28-8.133c-1.75-1.956-4.607.927-2.857 2.857l8.725 9.755a2.059 2.059 0 0 0 2.857 0l7.181-8.159 7.31 8.159a2.059 2.059 0 0 0 2.857 0l7.31-8.159 7.284 8.159a2.085 2.085 0 0 0 2.883 0l7.284-8.159 7.284 8.159a2.085 2.085 0 0 0 2.883 0l7.31-8.159 7.284 8.159a2.085 2.085 0 0 0 2.883 0c2.908-3.243 5.817-6.512 8.751-9.755 1.8-1.93-1.056-4.813-2.807-2.857z" transform="translate(-13.228 -69.343)"/>
                <path id="Path_3872" data-name="Path 3872" class="cls-6" d="m99.322 92.579-7.31 8.133-7.312-8.133a2.008 2.008 0 0 0-2.857 0l-7.284 8.133-7.284-8.133a2.033 2.033 0 0 0-2.883 0l-7.284 8.133c-2.445-2.574-4.864-5.431-7.284-8.133a2.033 2.033 0 0 0-2.883 0c-2.574 2.574-4.864 5.431-7.284 8.133l-7.31-8.133a2.008 2.008 0 0 0-2.857 0l-7.31 8.133c-2.419-2.574-4.839-5.431-7.284-8.133-1.75-1.956-4.607.927-2.857 2.883l8.725 9.729a2.008 2.008 0 0 0 2.857 0c2.445-2.574 4.864-5.431 7.284-8.133l7.31 8.133a2.008 2.008 0 0 0 2.857 0l7.31-8.133 7.284 8.133a2.033 2.033 0 0 0 2.883 0l7.284-8.133c2.445 2.574 4.865 5.431 7.284 8.133a2.033 2.033 0 0 0 2.883 0l7.31-8.133 7.29 8.132a2.033 2.033 0 0 0 2.883 0l8.751-9.729c1.695-1.956-1.161-4.838-2.912-2.882z" transform="translate(-13.228 -60.277)"/>
            </g>
            <path id="Path_3874" data-name="Path 3874" d="m57.757 79.63-6.743 43.961a24.425 24.425 0 0 1-24.374 24.348h19.381a24.425 24.425 0 0 0 24.374-24.348l6.743-43.961z" transform="translate(128.297 982.246)" style="fill:#482c80;opacity:.1"/>
            <path id="Rectangle_2311" data-name="Rectangle 2311" transform="translate(114.193 1060.537)" style="fill:#91b9b2" d="M0 0h94.768v8.365H0z"/>
        </g>
        <path id="Path_3753" data-name="Path 3753" d="M-18969 3658.109c.383 5.365 3.641 10.729 5.748 12.454" transform="translate(19157.309 -2576.25)" style="stroke:#7cd865;stroke-linecap:round;stroke-width:.5px;fill:none"/>
    </g>
</svg>
