<svg xmlns="http://www.w3.org/2000/svg" width="17.689" height="11.107" viewBox="0 0 17.689 11.107">
    <defs>
        <style>
            .cls-1{fill:none}.cls-2{fill:#68ad45}
        </style>
    </defs>
    <g id="Group_2253" transform="translate(-152.706 -895.99)">
        <g id="leaf_2_" transform="translate(170.395 906.915) rotate(179)">
            <path id="Rectangle_2150" d="M0 0H10.393V10.393H0z" class="cls-1" transform="translate(0 0)"/>
            <g id="Group_1711" transform="translate(0.28 0.179)">
                <path id="Path_1066" d="M.017 9.971a.23.23 0 0 0 .212.142c8.92 0 9.883-3.7 9.883-5.286a3.4 3.4 0 0 0-.377-1.587.23.23 0 0 0-.2-.124.244.244 0 0 0-.2.115A12.771 12.771 0 0 1 4.209 8.2a.23.23 0 1 1-.2-.413c.212-.1.416-.215.616-.331.076-.045.15-.092.225-.138.113-.07.224-.141.332-.215s.218-.143.318-.219l.1-.073C8.4 4.722 10.113 1.39 10.113.23a.23.23 0 0 0-.46 0 5.433 5.433 0 0 1-.73 2.018 4.216 4.216 0 0 0-2.718-.868c-2.952 0-3.57 2.809-3.9 4.318A7.785 7.785 0 0 1 .068 9.721a.229.229 0 0 0-.051.25z" class="cls-2" transform="translate(0 0)"/>
            </g>
        </g>
        <g id="leaf_2_2" transform="translate(152.706 895.99)">
            <path id="Rectangle_2150-2" d="M0 0H9.028V9.028H0z" class="cls-1" transform="translate(0 0)"/>
            <g id="Group_1711-2" transform="translate(0.243 0.088)">
                <path id="Path_1066-2" d="M.015.123A.2.2 0 0 1 .2 0c7.748 0 8.585 3.211 8.585 4.592a2.955 2.955 0 0 1-.328 1.379.2.2 0 0 1-.173.107.212.212 0 0 1-.177-.1 11.094 11.094 0 0 0-4.451-4.32.2.2 0 1 0-.175.359c.184.089.362.187.535.288.066.039.131.08.2.12.1.061.194.123.289.186s.186.128.278.194l.083.063C7.3 4.683 8.785 7.578 8.785 8.585a.2.2 0 1 1-.4 0 4.72 4.72 0 0 0-.634-1.753 3.662 3.662 0 0 1-2.361.754c-2.564 0-3.1-2.44-3.389-3.751A6.763 6.763 0 0 0 .059.341.2.2 0 0 1 .015.123z" class="cls-2" transform="translate(0)"/>
            </g>
        </g>
        <path id="Path_3754" fill="none" stroke="#68ad45" stroke-linecap="square" stroke-width="3px" d="M0-4.233V-8" transform="translate(160.42 909.654)"/>
    </g>
</svg>
