<svg xmlns="http://www.w3.org/2000/svg" width="16" height="16" viewBox="0 0 16 16">
    <path fill="none" d="M0 0H16V16H0z"/>
    <g>
        <path fill="#68ad45" d="M13.248.186A.3.3 0 0 0 12.97 0C1.264 0 0 4.851 0 6.937A4.463 4.463 0 0 0 .5 9.02a.3.3 0 0 0 .261.162.32.32 0 0 0 .268-.151A16.759 16.759 0 0 1 7.748 2.5a.3.3 0 1 1 .264.542c-.279.135-.547.282-.809.435-.1.059-.2.121-.3.182-.148.092-.294.185-.436.282s-.282.193-.419.293c-.043.031-.084.063-.126.1C2.248 7.074 0 11.447 0 12.97a.3.3 0 1 0 .6 0 7.13 7.13 0 0 1 .958-2.648 5.533 5.533 0 0 0 3.566 1.14c3.873 0 4.685-3.686 5.12-5.666A10.217 10.217 0 0 1 13.182.515a.3.3 0 0 0 .066-.329z" transform="translate(1.502 1.365)"/>
    </g>
</svg>
