<svg xmlns="http://www.w3.org/2000/svg" viewBox="0 0 528 188"><defs><style>.cls-1{fill:#fb4;}.cls-2,.cls-5,.cls-6,.cls-7{isolation:isolate;}.cls-3,.cls-6{fill:#fff;}.cls-4,.cls-7{fill:none;}.cls-4{stroke:#fb4;stroke-linecap:round;stroke-linejoin:round;stroke-width:10px;}.cls-5{opacity:0.85;}.cls-6{font-size:16px;font-family:IRANYekanMobile-Bold, IRANYekanMobile;font-weight:700;}.cls-7{stroke:#fff;stroke-width:2px;opacity:0.58;}</style></defs><g id="Layer_2" data-name="Layer 2"><g id="Layer_1-2" data-name="Layer 1"><g id="b-30"><g id="Group_2276" data-name="Group 2276"><rect id="Rectangle_2237" data-name="Rectangle 2237" class="cls-1" width="528" height="188"/></g><g id="Group_13066" data-name="Group 13066"><g id="Group_13072" data-name="Group 13072"><g class="cls-2"><g class="cls-2"><path class="cls-3" d="M307.51,65c.07.24.14.49.21.78.2.79.39,1.6.57,2.42a29.91,29.91,0,0,1,.78,6.06A15.29,15.29,0,0,1,307,82.68a8.42,8.42,0,0,1-7.56,4.11,9.93,9.93,0,0,1-6.86-2.61l-.32-.29a9.75,9.75,0,0,1-6.08,3,10.71,10.71,0,0,1-1.35.1,10,10,0,0,1-1.29-.08c.16,2.41.26,5,.29,7.7q0,1.56,0,3.42c0,.46,0,1,0,1.61v1.51c0,.48,0,1,0,1.61v1.46H275v-1.54c0-.59,0-1.13,0-1.61v-.78l0-.81V97.77c0-1.29,0-2.48,0-3.58,0-2.89-.16-5.59-.38-8.12a85.12,85.12,0,0,0-3.6-18.81l8.42-2.66q2.28,8.85,2.9,10.52c.74,2,1.63,3,2.67,3a2.44,2.44,0,0,0,.51,0,1.71,1.71,0,0,0,.56-.27,3,3,0,0,0,.92-1.91,15.81,15.81,0,0,0,.24-2.88c0-.5,0-1,0-1.56s-.1-1.41-.19-2.34l-.13-1.21-.14-1.24,8.5-1.24c.11,1.17.25,2.35.43,3.55q.36,2.4.78,4.23,1.15,5,2.67,5h0c.78,0,1.17-.85,1.19-2.55a53.52,53.52,0,0,0-1.21-8.78l8.23-2.31A4.38,4.38,0,0,1,307.51,65Z"/><path class="cls-3" d="M336,79.29a13,13,0,0,1,0,18.4,13,13,0,1,1-18.4-18.4,13,13,0,0,1,18.4,0Zm-6.24,12.16a4,4,0,0,0,1.24-3,4.23,4.23,0,0,0-4.2-4.2,4.2,4.2,0,1,0,3,7.16Z"/></g><g class="cls-2"><path class="cls-3" d="M348.53,78.25l-4.88-4.87,4.86-4.83,4.87,4.87Zm4.26,25.52H345.6l13.85-35.29h7.21Zm10.09.12L358,99l4.85-4.83,4.88,4.88Z"/></g></g></g><g id="Group_680" data-name="Group 680"><g id="تخفیف" class="cls-2"><g class="cls-2"><path class="cls-4" d="M284.64,117.07a6.83,6.83,0,0,1,1.85,4.85,6.69,6.69,0,0,1-.57,2.81h1.62v4.47h-2a19.68,19.68,0,0,1-5.8-.75,18.89,18.89,0,0,1-5.81.75H268.6a37.13,37.13,0,0,1-4.92-.19,4.56,4.56,0,0,1-3.21-2,5.67,5.67,0,0,1-.87-2.4c0-.33-.05-.67-.05-1s0-.8.06-1.21a20.59,20.59,0,0,1,.51-2.42c.08-.33.17-.68.27-1,0-.12.07-.23.1-.33a1.27,1.27,0,0,1,0-.15l4.29,1.22a33.18,33.18,0,0,0-.92,4.06,1.5,1.5,0,0,0,0,.22.93.93,0,0,0,.1.45.6.6,0,0,0,.59.35h9a6.54,6.54,0,0,1-.58-2.81,6.79,6.79,0,0,1,1.86-4.85,6.87,6.87,0,0,1,9.75,0ZM277,110.74l2.84-2.86,2.89,2.89-2.88,2.86Zm4.75,12.51a2.14,2.14,0,0,0,.4-1.33,2.51,2.51,0,0,0-.54-1.62,2.45,2.45,0,0,0-3.6,0,2.52,2.52,0,0,0-.55,1.62,2.1,2.1,0,0,0,.43,1.33,3.47,3.47,0,0,0,1.92,1.1A3.61,3.61,0,0,0,281.71,123.25Z"/><path class="cls-4" d="M298,123.49a1.17,1.17,0,0,0,.32.93,1.89,1.89,0,0,0,1.25.31h2v4.47h-2a7,7,0,0,1-1.68-.19,5.82,5.82,0,0,1-1.17-.42,3.64,3.64,0,0,1-.94-.6,3.42,3.42,0,0,1-1,.6,8,8,0,0,1-3.27.61h-4.58v-4.47h4.89a2.18,2.18,0,0,0,1.38-.33,1.08,1.08,0,0,0,.35-.91v-3.71H298Zm-7.54,13.61-2.67-2.7,2.63-2.73,2.73,2.73Zm5.76,0-2.68-2.7,2.65-2.73,2.73,2.73Z"/><path class="cls-4" d="M313.57,117.07a6.79,6.79,0,0,1,1.86,4.85,6.69,6.69,0,0,1-.57,2.81h1.62v4.47h-2a19.61,19.61,0,0,1-5.79-.75,18.94,18.94,0,0,1-5.81.75h-2v-4.47h1.62a6.69,6.69,0,0,1-.57-2.81,6.83,6.83,0,0,1,1.85-4.85,6.43,6.43,0,0,1,4.89-2A6.35,6.35,0,0,1,313.57,117.07Zm-7.8-6.21,2.84-2.86,2.89,2.89-2.88,2.86Zm4.87,12.39a2.15,2.15,0,0,0,.41-1.33,2.51,2.51,0,0,0-.54-1.62,2.18,2.18,0,0,0-1.8-.79,2.16,2.16,0,0,0-1.8.79,2.47,2.47,0,0,0-.55,1.62,2.09,2.09,0,0,0,.42,1.33,3.54,3.54,0,0,0,1.93,1.1A3.57,3.57,0,0,0,310.64,123.25Z"/><path class="cls-4" d="M323.68,116.5c.74.1,2.6.57,5.56,1.39l3.29.91,2.1.61.69,3.94-.39.3-.4.28-.73.54a9.46,9.46,0,0,0,2,.23l1,0h.71v4.47a15.14,15.14,0,0,1-6-.83,4.81,4.81,0,0,1-1.71-1.28,14.84,14.84,0,0,1-2.38,1q-3.13,1.06-11.53,1.06v-4.47a57,57,0,0,0,7.83-.38,13.58,13.58,0,0,0,5.21-1.92l-1-.28-1-.27c-.78-.23-1.37-.39-1.76-.49a12.1,12.1,0,0,0-2.26-.49.91.91,0,0,0-.7.42,2.84,2.84,0,0,0-.51,1.12l-4.33-1.13a6.71,6.71,0,0,1,2.33-3.75,4.91,4.91,0,0,1,4-1.06Zm-3.62-4.7,2.84-2.86,2.89,2.89-2.88,2.87Z"/><path class="cls-4" d="M348.59,122.28a7.83,7.83,0,0,1,.11,1.25,5.53,5.53,0,0,1-1.06,3.33q-1.71,2.34-5.55,2.34h-5.33v-4.47H342a3.3,3.3,0,0,0,1.73-.33,1.06,1.06,0,0,0,.52-1,2.48,2.48,0,0,0-.05-.45c-.09-.46-.18-.94-.28-1.42,0-.18-.07-.38-.11-.59l-.05-.25,0-.26c-.14-.75-.24-1.28-.31-1.6l4.26-1.29C347.94,118.83,348.25,120.4,348.59,122.28Zm-8.52-6.79-2.67-2.7,2.63-2.73,2.73,2.73Zm5.71,0-2.67-2.7,2.65-2.72,2.72,2.72Z"/></g></g><g id="تخفیف-2" class="cls-2"><g class="cls-2"><path class="cls-3" d="M284.64,117.07a6.83,6.83,0,0,1,1.85,4.85,6.69,6.69,0,0,1-.57,2.81h1.62v4.47h-2a19.68,19.68,0,0,1-5.8-.75,18.89,18.89,0,0,1-5.81.75H268.6a37.13,37.13,0,0,1-4.92-.19,4.56,4.56,0,0,1-3.21-2,5.67,5.67,0,0,1-.87-2.4c0-.33-.05-.67-.05-1s0-.8.06-1.21a20.59,20.59,0,0,1,.51-2.42c.08-.33.17-.68.27-1,0-.12.07-.23.1-.33a1.27,1.27,0,0,1,0-.15l4.29,1.22a33.18,33.18,0,0,0-.92,4.06,1.5,1.5,0,0,0,0,.22.93.93,0,0,0,.1.45.6.6,0,0,0,.59.35h9a6.54,6.54,0,0,1-.58-2.81,6.79,6.79,0,0,1,1.86-4.85,6.87,6.87,0,0,1,9.75,0ZM277,110.74l2.84-2.86,2.89,2.89-2.88,2.86Zm4.75,12.51a2.14,2.14,0,0,0,.4-1.33,2.51,2.51,0,0,0-.54-1.62,2.45,2.45,0,0,0-3.6,0,2.52,2.52,0,0,0-.55,1.62,2.1,2.1,0,0,0,.43,1.33,3.47,3.47,0,0,0,1.92,1.1A3.61,3.61,0,0,0,281.71,123.25Z"/><path class="cls-3" d="M298,123.49a1.17,1.17,0,0,0,.32.93,1.89,1.89,0,0,0,1.25.31h2v4.47h-2a7,7,0,0,1-1.68-.19,5.82,5.82,0,0,1-1.17-.42,3.64,3.64,0,0,1-.94-.6,3.42,3.42,0,0,1-1,.6,8,8,0,0,1-3.27.61h-4.58v-4.47h4.89a2.18,2.18,0,0,0,1.38-.33,1.08,1.08,0,0,0,.35-.91v-3.71H298Zm-7.54,13.61-2.67-2.7,2.63-2.73,2.73,2.73Zm5.76,0-2.68-2.7,2.65-2.73,2.73,2.73Z"/><path class="cls-3" d="M313.57,117.07a6.79,6.79,0,0,1,1.86,4.85,6.69,6.69,0,0,1-.57,2.81h1.62v4.47h-2a19.61,19.61,0,0,1-5.79-.75,18.94,18.94,0,0,1-5.81.75h-2v-4.47h1.62a6.69,6.69,0,0,1-.57-2.81,6.83,6.83,0,0,1,1.85-4.85,6.43,6.43,0,0,1,4.89-2A6.35,6.35,0,0,1,313.57,117.07Zm-7.8-6.21,2.84-2.86,2.89,2.89-2.88,2.86Zm4.87,12.39a2.15,2.15,0,0,0,.41-1.33,2.51,2.51,0,0,0-.54-1.62,2.18,2.18,0,0,0-1.8-.79,2.16,2.16,0,0,0-1.8.79,2.47,2.47,0,0,0-.55,1.62,2.09,2.09,0,0,0,.42,1.33,3.54,3.54,0,0,0,1.93,1.1A3.57,3.57,0,0,0,310.64,123.25Z"/><path class="cls-3" d="M323.68,116.5c.74.1,2.6.57,5.56,1.39l3.29.91,2.1.61.69,3.94-.39.3-.4.28-.73.54a9.46,9.46,0,0,0,2,.23l1,0h.71v4.47a15.14,15.14,0,0,1-6-.83,4.81,4.81,0,0,1-1.71-1.28,14.84,14.84,0,0,1-2.38,1q-3.13,1.06-11.53,1.06v-4.47a57,57,0,0,0,7.83-.38,13.58,13.58,0,0,0,5.21-1.92l-1-.28-1-.27c-.78-.23-1.37-.39-1.76-.49a12.1,12.1,0,0,0-2.26-.49.91.91,0,0,0-.7.42,2.84,2.84,0,0,0-.51,1.12l-4.33-1.13a6.71,6.71,0,0,1,2.33-3.75,4.91,4.91,0,0,1,4-1.06Zm-3.62-4.7,2.84-2.86,2.89,2.89-2.88,2.87Z"/><path class="cls-3" d="M348.59,122.28a7.83,7.83,0,0,1,.11,1.25,5.53,5.53,0,0,1-1.06,3.33q-1.71,2.34-5.55,2.34h-5.33v-4.47H342a3.3,3.3,0,0,0,1.73-.33,1.06,1.06,0,0,0,.52-1,2.48,2.48,0,0,0-.05-.45c-.09-.46-.18-.94-.28-1.42,0-.18-.07-.38-.11-.59l-.05-.25,0-.26c-.14-.75-.24-1.28-.31-1.6l4.26-1.29C347.94,118.83,348.25,120.4,348.59,122.28Zm-8.52-6.79-2.67-2.7,2.63-2.73,2.73,2.73Zm5.71,0-2.67-2.7,2.65-2.72,2.72,2.72Z"/></g></g></g><g id="برای_خرید_کتاب_های_متنی_و_صوتی" data-name="برای خرید کتاب های متنی و صوتی" class="cls-5"><g class="cls-2"><path class="cls-3" d="M192.76,77.1h-.53a2.39,2.39,0,0,1-1.66-.77,1.74,1.74,0,0,1-.51.42,2.8,2.8,0,0,1-.64.27,5,5,0,0,1-.69.14c-.23,0-.45,0-.67,0l-.5,0-.58-.1-.74-.18-1-.3.47-1.56a7.35,7.35,0,0,0,.83.28c.28.08.55.15.82.2a5.49,5.49,0,0,0,.78.09l.29,0a3.77,3.77,0,0,0,.44,0,1.41,1.41,0,0,0,.44-.14.56.56,0,0,0,.28-.29.39.39,0,0,0,0-.14.34.34,0,0,0,0-.15,1.44,1.44,0,0,0-.11-.2l-.2-.32L187,71.08l1.37-.88,2.33,3.53.4.6c.14.2.28.39.42.56a3.93,3.93,0,0,0,.4.41.57.57,0,0,0,.36.16h.53Z"/><path class="cls-3" d="M197.35,71.61s0,.1.06.22.06.25.09.41.07.35.11.55.07.4.1.6.06.4.08.59a4.92,4.92,0,0,1,0,.51,2.79,2.79,0,0,1-.22,1.16,2.34,2.34,0,0,1-.58.81,2.23,2.23,0,0,1-.81.48,2.59,2.59,0,0,1-.9.16H192.5V75.47h2.86l.22,0a.94.94,0,0,0,.3-.12,1,1,0,0,0,.26-.3,1.15,1.15,0,0,0,.11-.54,2.36,2.36,0,0,0,0-.35,3.56,3.56,0,0,0-.06-.44,4,4,0,0,0-.09-.48c0-.17-.06-.32-.09-.47s-.06-.28-.09-.4-.06-.21-.07-.27Zm-3.49,9-1.1-1.11,1.08-1.13L195,79.55Zm2.73,0-1.09-1.11,1.08-1.12,1.12,1.12Z"/><path class="cls-3" d="M204.43,77.1h-.25a4.12,4.12,0,0,1-.51,0,1.29,1.29,0,0,1-.46-.19,4.65,4.65,0,0,1-.39,1.53,3.59,3.59,0,0,1-2,1.93,4.52,4.52,0,0,1-1.6.26h-.82V79h.82a3.8,3.8,0,0,0,1.08-.13,1.71,1.71,0,0,0,.75-.42,1.65,1.65,0,0,0,.44-.75,3.64,3.64,0,0,0,.14-1.12v-4h1.63v2a.78.78,0,0,0,.13.48,1,1,0,0,0,.29.29,1.13,1.13,0,0,0,.33.13l.21,0h.25Z"/><path class="cls-3" d="M213.19,74.5l-.34.23c-.2.13-.47.3-.8.49s-.72.4-1.16.62a14.84,14.84,0,0,1-1.44.61,13.09,13.09,0,0,1-1.61.46,7.49,7.49,0,0,1-1.69.19h-2V75.47h2a7.42,7.42,0,0,0,1.36-.13,14.14,14.14,0,0,0,1.43-.34,12.38,12.38,0,0,0,1.34-.46,8.43,8.43,0,0,0,1.11-.5l-.65-.2-.71-.21-.73-.21-.67-.18-.56-.13a2.31,2.31,0,0,0-.39,0,1.06,1.06,0,0,0-.27,0,.88.88,0,0,0-.21.12,1.93,1.93,0,0,0-.17.21c-.05.09-.1.2-.16.32l-1.49-.45a4.41,4.41,0,0,1,.3-.74,2.45,2.45,0,0,1,.44-.6,1.91,1.91,0,0,1,.6-.4,1.86,1.86,0,0,1,.77-.14,2.18,2.18,0,0,1,.49.07l.71.19c.26.08.55.16.85.27l.91.31.89.32.78.28.58.22.3.1ZM206,68.76l1.18-1.18,1.2,1.2L207.16,70Z"/><path class="cls-3" d="M224.35,79.06a6.17,6.17,0,0,0,1-.07,2,2,0,0,0,.72-.26,1.28,1.28,0,0,0,.42-.5,2.22,2.22,0,0,0,.15-.79l-.3-.08-.47-.12-.58-.16-.65-.17-.64-.17-.58-.15a5,5,0,0,1-.26-.84,4.43,4.43,0,0,1-.08-.8,3.51,3.51,0,0,1,.28-1.41,3.26,3.26,0,0,1,.78-1.15,3.64,3.64,0,0,1,1.24-.78,4.38,4.38,0,0,1,1.66-.29,4.74,4.74,0,0,1,.65.05c.22,0,.46.09.73.16L228,73.1c-.2-.06-.38-.1-.53-.13a2.42,2.42,0,0,0-.47,0,2.67,2.67,0,0,0-.91.15,2.12,2.12,0,0,0-.74.4,2,2,0,0,0-.66,1.53v.17l2.29.58a1.55,1.55,0,0,1,.91.54,1.49,1.49,0,0,1,.28.93,5.17,5.17,0,0,1-.21,1.56,2.39,2.39,0,0,1-.67,1.08,2.77,2.77,0,0,1-1.19.64,7.07,7.07,0,0,1-1.79.2H223a4.34,4.34,0,0,1-1-.12,4,4,0,0,1-1.71-.92,3.8,3.8,0,0,1-.63-.75,4.46,4.46,0,0,1-.65-2.45,6.07,6.07,0,0,1,.06-.85,7.49,7.49,0,0,1,.18-.87c.09-.3.2-.61.33-.94s.28-.68.47-1.06l1.45.7c-.16.32-.28.62-.39.89a7.7,7.7,0,0,0-.27.75,6.77,6.77,0,0,0-.16.69,4.87,4.87,0,0,0,0,.66A2.94,2.94,0,0,0,221,78a2.07,2.07,0,0,0,.82.76,2.47,2.47,0,0,0,1.16.26Z"/><path class="cls-3" d="M232,77.1h-1.62V67.68H232Z"/><path class="cls-3" d="M237.6,77.1h-.24a4.12,4.12,0,0,1-.51,0,1.26,1.26,0,0,1-.47-.19,4.91,4.91,0,0,1-.38,1.53,3.68,3.68,0,0,1-.82,1.17,3.5,3.5,0,0,1-1.23.76,4.44,4.44,0,0,1-1.6.26h-.81V79h.81a3.92,3.92,0,0,0,1.09-.13,1.65,1.65,0,0,0,1.19-1.17,4,4,0,0,0,.14-1.12v-4h1.63v2a.85.85,0,0,0,.12.48,1.17,1.17,0,0,0,.3.29,1.2,1.2,0,0,0,.32.13l.22,0h.24Z"/><path class="cls-3" d="M241.12,71.61s0,.1,0,.22.06.25.1.41.07.35.11.55.07.4.1.6.06.4.08.59a4.92,4.92,0,0,1,0,.51,3,3,0,0,1-.22,1.16,2.36,2.36,0,0,1-.59.81,2.19,2.19,0,0,1-.8.48,2.59,2.59,0,0,1-.9.16h-1.74V75.47h1.79l.22,0a.81.81,0,0,0,.29-.12.86.86,0,0,0,.26-.3,1,1,0,0,0,.11-.54,2.24,2.24,0,0,0,0-.35c0-.14,0-.29-.06-.44l-.09-.48c0-.17-.06-.32-.09-.47s-.07-.28-.1-.4-.05-.21-.07-.27Zm-2.86,7.76,1.18-1.19,1.2,1.2-1.19,1.19Z"/></g><text class="cls-6" transform="translate(237.05 77)"> </text><g class="cls-2"><path class="cls-3" d="M212.69,96.1a2.49,2.49,0,0,1-.91-.17,2.11,2.11,0,0,1-.77-.47,2,2,0,0,1-.27-.3,2.12,2.12,0,0,1-.25-.42,2.09,2.09,0,0,1-.18-.55,2.82,2.82,0,0,1-.08-.68,4.73,4.73,0,0,1,.07-.71q.06-.37.15-.72c.05-.22.1-.42.15-.59l.09-.3.78.25.77.24c0,.11-.08.25-.13.42l-.12.5c0,.17-.07.34-.1.5a3.66,3.66,0,0,0,0,.42,1.15,1.15,0,0,0,.09.5.78.78,0,0,0,.22.3.6.6,0,0,0,.25.13l.29,0h7.79l.22,0a.73.73,0,0,0,.55-.42,1,1,0,0,0,.12-.54,2.36,2.36,0,0,0,0-.35,3.56,3.56,0,0,0-.06-.44c0-.16,0-.32-.09-.48s-.06-.32-.09-.47a1,1,0,0,1,0-.17l1.55-.4a.13.13,0,0,0,0,.06c0,.16.07.35.11.55s.07.4.1.6.06.4.08.59a4.92,4.92,0,0,1,0,.51,2.79,2.79,0,0,1-.22,1.16,2.34,2.34,0,0,1-.58.81,2.23,2.23,0,0,1-.81.48,2.59,2.59,0,0,1-.9.16Zm2.71,2.18,1.18-1.19,1.2,1.2-1.19,1.19Z"/><path class="cls-3" d="M227.79,96.1a7.41,7.41,0,0,1-1.24-.09,3.37,3.37,0,0,1-.86-.26,1.61,1.61,0,0,1-.57-.44,1.87,1.87,0,0,1-.32-.63,3.24,3.24,0,0,1-.15-.81c0-.3,0-.64,0-1V86.68h1.63v6.19a6.28,6.28,0,0,0,0,.83.72.72,0,0,0,.65.72,6.19,6.19,0,0,0,.86,0Z"/><path class="cls-3" d="M234.54,94.47V96.1h-1a3.24,3.24,0,0,1-1-.15,2,2,0,0,1-.77-.45,2.15,2.15,0,0,1-.86.45,4,4,0,0,1-1.14.15h-2.26V94.47h2.26a2.19,2.19,0,0,0,.63-.07.87.87,0,0,0,.36-.19.49.49,0,0,0,.16-.25,1.24,1.24,0,0,0,0-.27V91.58h1.62v2.07a.72.72,0,0,0,.14.46.86.86,0,0,0,.29.25,1.39,1.39,0,0,0,.33.1h1.19Zm-4.95-4.57-1.1-1.11,1.08-1.12,1.12,1.12Zm2.74,0-1.1-1.11,1.08-1.12,1.13,1.12Z"/><path class="cls-3" d="M234.28,96.1V94.47h4.11a1.49,1.49,0,0,0,.36,0,1.17,1.17,0,0,0,.3-.12.28.28,0,0,0,.13-.23,1.53,1.53,0,0,0-.21-.68,9.21,9.21,0,0,0-.55-.85,11.6,11.6,0,0,0-.75-.91c-.27-.31-.55-.6-.82-.87s-.53-.51-.77-.72-.43-.36-.57-.47l.13-1.48,5.68-2.59.59,1.42L237.13,89l.56.55c.21.2.42.42.64.65s.43.46.65.71.42.49.61.74.35.48.5.72a4.77,4.77,0,0,1,.35.66,3.06,3.06,0,0,1,.15.53,2.79,2.79,0,0,1,0,.47,2,2,0,0,1,0,.45,1.94,1.94,0,0,1-.11.34,1.85,1.85,0,0,1-.69.81,3.33,3.33,0,0,1-.73.32,4.12,4.12,0,0,1-1.07.13Z"/></g><text class="cls-6" transform="translate(197.75 96)">‌</text><g class="cls-2"><path class="cls-3" d="M190.27,98.06a6.17,6.17,0,0,0,1-.07,1.85,1.85,0,0,0,.71-.26,1.23,1.23,0,0,0,.43-.5,2,2,0,0,0,.14-.79l-.29-.08-.47-.12-.59-.16-.64-.17-.64-.17-.59-.15a6.07,6.07,0,0,1-.25-.84A4.43,4.43,0,0,1,189,94a3.69,3.69,0,0,1,.27-1.41,3.42,3.42,0,0,1,.79-1.15,3.64,3.64,0,0,1,1.24-.78,4.35,4.35,0,0,1,1.66-.29,4.74,4.74,0,0,1,.65.05c.21,0,.46.09.73.16L194,92.1c-.2-.06-.38-.1-.53-.13a2.5,2.5,0,0,0-.47,0,2.77,2.77,0,0,0-.92.15,2.07,2.07,0,0,0-.73.4,2,2,0,0,0-.49.66,2,2,0,0,0-.18.87v.08s0,.06,0,.09l2.29.58a1.55,1.55,0,0,1,.91.54,1.49,1.49,0,0,1,.28.93,5.17,5.17,0,0,1-.21,1.56,2.39,2.39,0,0,1-.67,1.08,2.77,2.77,0,0,1-1.19.64,7.07,7.07,0,0,1-1.79.2h-1.38a4.25,4.25,0,0,1-1-.12,3.53,3.53,0,0,1-.92-.36,3.65,3.65,0,0,1-.79-.56,4.22,4.22,0,0,1-.64-.75,4.54,4.54,0,0,1-.64-2.45,6.07,6.07,0,0,1,.06-.85,5.86,5.86,0,0,1,.18-.87,8.88,8.88,0,0,1,.33-.94c.13-.33.28-.68.47-1.06l1.44.7c-.15.32-.28.62-.38.89a7.7,7.7,0,0,0-.27.75,4.5,4.5,0,0,0-.21,1.35,3,3,0,0,0,.42,1.61,2,2,0,0,0,.82.76,2.46,2.46,0,0,0,1.15.26Z"/><path class="cls-3" d="M199.43,96.1a7.41,7.41,0,0,1-1.24-.09,3.59,3.59,0,0,1-.87-.26,1.66,1.66,0,0,1-.56-.44,1.87,1.87,0,0,1-.32-.63,3.24,3.24,0,0,1-.15-.81c0-.3,0-.64,0-1V86.68h1.63v6.19a6.28,6.28,0,0,0,0,.83.7.7,0,0,0,.65.72,6.19,6.19,0,0,0,.86,0Z"/><path class="cls-3" d="M205.51,89l.86,1.14.39.51.42.55.41.55.39.52a2.85,2.85,0,0,1,.53,1.18,2.45,2.45,0,0,1,0,.46,2.57,2.57,0,0,1-.14.82,2.17,2.17,0,0,1-.38.72,2.33,2.33,0,0,1-.61.56,2.93,2.93,0,0,1-.82.37,3.65,3.65,0,0,1-1,.13,5.47,5.47,0,0,1-1-.09,4.37,4.37,0,0,1-1-.36l-.23-.1a1.24,1.24,0,0,0-.2-.1l-.18-.09a7.65,7.65,0,0,1-1.38.28,14.5,14.5,0,0,1-1.69.09h-.73V94.47h1.58l.28,0q-.17-.2-.3-.39a2,2,0,0,1-.37-.83,2.59,2.59,0,0,1-.05-.51,2.42,2.42,0,0,1,.2-1,2.46,2.46,0,0,1,.57-.78,2.77,2.77,0,0,1,.85-.5,3.3,3.3,0,0,1,1-.17,2.44,2.44,0,0,1,1.13.25,2.94,2.94,0,0,1,.83.63,3,3,0,0,1,.51.83,2.37,2.37,0,0,1,.17.83,2.49,2.49,0,0,1-.06.57,2.36,2.36,0,0,1-.18.49,1.79,1.79,0,0,1-.27.44,4.64,4.64,0,0,1-.37.42l.42.12a2,2,0,0,0,.42,0l.42,0a1.85,1.85,0,0,0,.42-.11,1.16,1.16,0,0,0,.36-.25,1,1,0,0,0,.23-.41.58.58,0,0,0,0-.19,1.32,1.32,0,0,0-.11-.45,4.25,4.25,0,0,0-.38-.7c-.19-.28-.42-.59-.69-.94l-.9-1.12-.68-.84Zm-3.66,3.76a1.14,1.14,0,0,0,.08.43,1,1,0,0,0,.22.34,2.43,2.43,0,0,0,.38.31l.53.31a4,4,0,0,0,.39-.23,1.49,1.49,0,0,0,.33-.27,1.63,1.63,0,0,0,.23-.35,1.07,1.07,0,0,0,.08-.41,1,1,0,0,0-.12-.49,1.19,1.19,0,0,0-.28-.34,1.25,1.25,0,0,0-.37-.21,1.16,1.16,0,0,0-.34-.06,1.17,1.17,0,0,0-1,.6A.81.81,0,0,0,201.85,92.72Z"/></g><g class="cls-2"><path class="cls-3" d="M172.51,115.1h-1.74a2.34,2.34,0,0,1,.25.47,1.47,1.47,0,0,1,.1.47,1.88,1.88,0,0,1-.34,1.1,2.8,2.8,0,0,1-.9.84,4.62,4.62,0,0,1-1.32.53,6.38,6.38,0,0,1-1.6.19h-1.68a4.31,4.31,0,0,1-1-.12,4,4,0,0,1-1.71-.92,4.22,4.22,0,0,1-.64-.75,4.54,4.54,0,0,1-.64-2.45,6.06,6.06,0,0,1,0-.85,5.73,5.73,0,0,1,.16-.87c.08-.3.18-.61.3-.94s.28-.67.46-1l1.45.7c-.15.32-.28.61-.38.88a7.13,7.13,0,0,0-.24.75,4.69,4.69,0,0,0-.14.69c0,.22,0,.44,0,.66a3,3,0,0,0,.42,1.61,2.07,2.07,0,0,0,.82.76,2.46,2.46,0,0,0,1.15.26H167a4.56,4.56,0,0,0,.92-.09,3,3,0,0,0,.77-.25,2,2,0,0,0,.55-.38.77.77,0,0,0,.24-.46,1.72,1.72,0,0,0-.48-.34,5.06,5.06,0,0,0-.66-.24,6,6,0,0,0-.8-.14c-.28,0-.58-.06-.89-.07l0-1.62h5.85Z"/><path class="cls-3" d="M175.67,109.61a1.52,1.52,0,0,1,.05.22c0,.11.06.25.1.41s.07.35.11.55.07.4.1.6.06.4.08.59a4.92,4.92,0,0,1,0,.51,3,3,0,0,1-.22,1.16,2.47,2.47,0,0,1-.58.81,2.23,2.23,0,0,1-.81.48,2.59,2.59,0,0,1-.9.16h-2.81v-1.63h2.86l.22,0a.73.73,0,0,0,.55-.42,1,1,0,0,0,.12-.54,2.36,2.36,0,0,0,0-.35,3.56,3.56,0,0,0-.06-.44l-.09-.48c0-.17-.06-.32-.09-.47s-.06-.28-.09-.4-.06-.21-.08-.27Zm-3.35-1.26-1.1-1.11,1.08-1.13,1.12,1.13Zm2.73,0L174,107.23l1.08-1.12,1.12,1.12Z"/><path class="cls-3" d="M178.38,117a8.62,8.62,0,0,0,.93,0,6.26,6.26,0,0,0,.72-.1,3.36,3.36,0,0,0,.56-.18,1.51,1.51,0,0,0,.41-.26,1.46,1.46,0,0,0,.42-.51,2.08,2.08,0,0,0,.16-.79h-1a5.16,5.16,0,0,1-.67,0,3.69,3.69,0,0,1-.65-.18,3.08,3.08,0,0,1-.59-.33,1.9,1.9,0,0,1-.48-.5,2.45,2.45,0,0,1-.33-.71,3.78,3.78,0,0,1,0-1.72,2.51,2.51,0,0,1,.2-.62,2.63,2.63,0,0,1,.27-.47c.1-.13.19-.25.28-.35a2.8,2.8,0,0,1,.89-.6,2.72,2.72,0,0,1,1.07-.21,2.82,2.82,0,0,1,1.22.24,2.3,2.3,0,0,1,.83.68,2.81,2.81,0,0,1,.47,1,5.17,5.17,0,0,1,.15,1.28v.89h1.11v1.63H183.2a3.92,3.92,0,0,1-.32,1.51,3,3,0,0,1-.86,1.07,4.33,4.33,0,0,1-.66.41,4.83,4.83,0,0,1-.79.29,6.5,6.5,0,0,1-1,.17,11.36,11.36,0,0,1-1.22,0Zm2.15-6a1.16,1.16,0,0,0-.88.35,1.52,1.52,0,0,0-.33,1.08,1,1,0,0,0,.12.49,1.15,1.15,0,0,0,.29.33,1.44,1.44,0,0,0,.4.18,1.74,1.74,0,0,0,.45.06h1v-.89a3.74,3.74,0,0,0-.05-.63,1.4,1.4,0,0,0-.16-.44.79.79,0,0,0-.21-.28.84.84,0,0,0-.24-.16.63.63,0,0,0-.22-.07Z"/><path class="cls-3" d="M184,115.1v-1.63h.81a2.22,2.22,0,0,0,.64-.07.89.89,0,0,0,.35-.19A.56.56,0,0,0,186,113a1,1,0,0,0,0-.3v-2.07h1.62v2.07a.64.64,0,0,0,0,.23.82.82,0,0,0,.12.2.54.54,0,0,0,.16.14.44.44,0,0,0,.19.07l.14-.24.55-.86c.2-.3.4-.58.61-.85a8.34,8.34,0,0,1,.68-.76,4.45,4.45,0,0,1,.77-.62,3.54,3.54,0,0,1,.85-.42,3.08,3.08,0,0,1,1-.15,3.85,3.85,0,0,1,1,.14,2.29,2.29,0,0,1,.9.47,2.49,2.49,0,0,1,.64.89,3.48,3.48,0,0,1,.24,1.38,2.93,2.93,0,0,1-.26,1.32,2.49,2.49,0,0,1-.68.87,2.45,2.45,0,0,1-.93.49,3.52,3.52,0,0,1-1,.15h-4.26a3.7,3.7,0,0,1-.57-.07,2.19,2.19,0,0,1-.55-.17,1.22,1.22,0,0,1-.44-.34,3.14,3.14,0,0,1-2,.59ZM192.7,111a1.81,1.81,0,0,0-.79.2,4.27,4.27,0,0,0-.79.54,6.32,6.32,0,0,0-.75.79,10.28,10.28,0,0,0-.65.93h2.9a2.2,2.2,0,0,0,.5-.06,1.46,1.46,0,0,0,.46-.2,1.24,1.24,0,0,0,.35-.37,1.09,1.09,0,0,0,.14-.57,1.38,1.38,0,0,0-.12-.61,1.19,1.19,0,0,0-.3-.39,1.27,1.27,0,0,0-.44-.2A2.1,2.1,0,0,0,192.7,111Z"/><path class="cls-3" d="M201.83,117a8.62,8.62,0,0,0,.93,0,6.26,6.26,0,0,0,.72-.1,3.08,3.08,0,0,0,.56-.18,1.51,1.51,0,0,0,.41-.26,1.35,1.35,0,0,0,.42-.51,2.08,2.08,0,0,0,.16-.79h-1a5.16,5.16,0,0,1-.67,0,3.69,3.69,0,0,1-.65-.18,3.08,3.08,0,0,1-.59-.33,1.9,1.9,0,0,1-.48-.5,2.45,2.45,0,0,1-.33-.71,3.78,3.78,0,0,1,0-1.72,3,3,0,0,1,.2-.62,2.63,2.63,0,0,1,.27-.47,3.6,3.6,0,0,1,.29-.35,2.75,2.75,0,0,1,.88-.6,2.72,2.72,0,0,1,1.07-.21,2.82,2.82,0,0,1,1.22.24,2.22,2.22,0,0,1,.83.68,2.81,2.81,0,0,1,.47,1,4.72,4.72,0,0,1,.16,1.28v2.32a4,4,0,0,1-.3,1.64,3.05,3.05,0,0,1-.89,1.14,4.33,4.33,0,0,1-.66.41,4.51,4.51,0,0,1-.79.29,6.27,6.27,0,0,1-1,.17,11.36,11.36,0,0,1-1.22,0Zm2.15-6a1.16,1.16,0,0,0-.88.35,1.52,1.52,0,0,0-.32,1.08,1,1,0,0,0,.11.49,1.15,1.15,0,0,0,.29.33,1.38,1.38,0,0,0,.41.18,1.61,1.61,0,0,0,.44.06h1v-.89A2.92,2.92,0,0,0,205,112a1.4,1.4,0,0,0-.16-.44.79.79,0,0,0-.21-.28.84.84,0,0,0-.24-.16.63.63,0,0,0-.22-.07Z"/><path class="cls-3" d="M223.67,115.1h-1.75a1.92,1.92,0,0,1,.25.47,1.24,1.24,0,0,1,.1.47,2,2,0,0,1-.33,1.1,3,3,0,0,1-.91.84,4.39,4.39,0,0,1-1.32.53,6.32,6.32,0,0,1-1.6.19h-1.67a4.34,4.34,0,0,1-1-.12,3.82,3.82,0,0,1-.92-.36,3.65,3.65,0,0,1-.79-.56,3.8,3.8,0,0,1-.63-.75,4.55,4.55,0,0,1-.65-2.45,8.08,8.08,0,0,1,.05-.85,7.3,7.3,0,0,1,.16-.87c.08-.3.18-.61.3-.94s.28-.67.46-1l1.45.7c-.15.32-.27.61-.37.88a5.49,5.49,0,0,0-.25.75,4.62,4.62,0,0,0-.13.69,4.87,4.87,0,0,0,0,.66,3,3,0,0,0,.42,1.61,2,2,0,0,0,.81.76,2.5,2.5,0,0,0,1.16.26h1.67A4.66,4.66,0,0,0,219,117a3.16,3.16,0,0,0,.77-.25,2.07,2.07,0,0,0,.54-.38.77.77,0,0,0,.24-.46,1.72,1.72,0,0,0-.48-.34,4.18,4.18,0,0,0-.66-.24,5.88,5.88,0,0,0-.79-.14c-.29,0-.59-.06-.9-.07l.05-1.62h5.86Z"/><path class="cls-3" d="M227.79,113.47v1.63h-.41a3.31,3.31,0,0,1-1-.15,2,2,0,0,1-.77-.45,2.15,2.15,0,0,1-.86.45,3.94,3.94,0,0,1-1.14.15h-1.16v-1.63h1.16a2.27,2.27,0,0,0,.64-.07.89.89,0,0,0,.35-.19.43.43,0,0,0,.16-.25.84.84,0,0,0,0-.27v-2.11h1.62v2.07a.72.72,0,0,0,.13.46.86.86,0,0,0,.29.25,1.62,1.62,0,0,0,.34.1h.63Zm-3.76-5.9,1.17-1.18,1.2,1.2-1.18,1.19Z"/><path class="cls-3" d="M234.55,113.47v1.63h-1a3.2,3.2,0,0,1-1-.15,2,2,0,0,1-.77-.45,2.19,2.19,0,0,1-.87.45,3.94,3.94,0,0,1-1.14.15h-2.26v-1.63h2.26a2.22,2.22,0,0,0,.64-.07.87.87,0,0,0,.36-.19A.56.56,0,0,0,231,113a1.24,1.24,0,0,0,0-.27v-2.11h1.62v2.07a.72.72,0,0,0,.13.46,1,1,0,0,0,.3.25,1.39,1.39,0,0,0,.33.1h1.19Zm-5-4.57-1.1-1.11,1.08-1.12,1.12,1.12Zm2.73,0-1.09-1.11,1.08-1.12,1.12,1.12Z"/><path class="cls-3" d="M238.57,109.47a2.65,2.65,0,0,1,1.2.25,2.49,2.49,0,0,1,.85.69,2.89,2.89,0,0,1,.5,1,4.09,4.09,0,0,1,.17,1.17,4.87,4.87,0,0,1-.12,1.16,2.89,2.89,0,0,1-.31.79,1.76,1.76,0,0,1-.44.49,2,2,0,0,1-.49.27,2.12,2.12,0,0,1-.47.11l-.39,0a3,3,0,0,1-.62-.06,3.42,3.42,0,0,1-.6-.18,5.57,5.57,0,0,1-.63-.28l-.71-.37a1.68,1.68,0,0,1-.63.44,2.14,2.14,0,0,1-.79.14h-.8l0-1.63h.82a.41.41,0,0,0,.25-.08,1,1,0,0,0,.2-.24,2.16,2.16,0,0,0,.16-.37c.05-.15.1-.31.15-.49s.19-.64.32-1a3.59,3.59,0,0,1,.48-.91,2.52,2.52,0,0,1,.77-.68A2.36,2.36,0,0,1,238.57,109.47Zm.56,4.39a.8.8,0,0,0,.19,0,.52.52,0,0,0,.26-.14,1.18,1.18,0,0,0,.23-.36,2.06,2.06,0,0,0,.1-.69,2.15,2.15,0,0,0-.06-.44,1.87,1.87,0,0,0-.22-.51,1.4,1.4,0,0,0-.41-.43,1.11,1.11,0,0,0-.65-.18.82.82,0,0,0-.56.2,1.88,1.88,0,0,0-.36.5,4.18,4.18,0,0,0-.25.65,6,6,0,0,1-.21.64l.51.28c.18.09.36.18.53.25l.49.18A1.35,1.35,0,0,0,239.13,113.86Z"/></g></g><line id="Line_1" data-name="Line 1" class="cls-7" x1="252.02" y1="59.5" x2="252.02" y2="126.5"/></g></g></g></g></svg>