<svg xmlns="http://www.w3.org/2000/svg" viewBox="0 0 528 188"><defs><style>.cls-1{fill:#2eacac;}.cls-2,.cls-6{fill:#fff;}.cls-2,.cls-4{stroke:#fff;}.cls-2{stroke-width:4px;}.cls-3{fill:#2eabab;}.cls-4,.cls-7{fill:none;}.cls-4{stroke-width:2px;opacity:0.68;}.cls-4,.cls-5,.cls-9{isolation:isolate;}.cls-7{stroke:#2eabab;stroke-linecap:round;stroke-linejoin:round;stroke-width:10px;}.cls-8{fill:#ebf6f7;}.cls-9{font-size:12px;fill:#e0f0f2;font-family:IRANYekanFN;}</style></defs><g id="Layer_2" data-name="Layer 2"><g id="Layer_1-2" data-name="Layer 1"><g id="Group_13092" data-name="Group 13092"><g id="Group_13082" data-name="Group 13082"><g id="Group_2276-6" data-name="Group 2276-6"><rect id="Rectangle_2237-6" data-name="Rectangle 2237-6" class="cls-1" width="528" height="188"/></g></g><g id="Group_13088" data-name="Group 13088"><g id="Group_13084" data-name="Group 13084"><path id="bx-infinite" class="cls-2" d="M231,105.65a29.79,29.79,0,0,1-22-15.15,29.8,29.8,0,0,1-21.94,15.15c-12.12,0-21.94-10.14-21.94-22.65S175,60.35,187.11,60.35h0a29.91,29.91,0,0,1,21.94,15.19A29.78,29.78,0,0,1,231,60.35c12.12,0,21.95,10.14,21.95,22.65s-9.83,22.65-21.95,22.65ZM186.88,67.94h0A15.09,15.09,0,0,0,172,83.25v0A15.13,15.13,0,0,0,186.9,98.65c6.59,0,14.72-7.32,19.13-15.65-4.95-9.09-12.54-15.06-19.15-15.06Zm44.32-.52c-6.68,0-14.72,6.64-19.25,15.58A26,26,0,0,0,231.2,98.58a15.59,15.59,0,0,0,1-31.15c-.32,0-.63,0-1,0Z"/></g><path id="Path_3800" data-name="Path 3800" class="cls-3" d="M246.3,29.42v82.8H359.88l25.32-90Z"/><path id="Path_3801" data-name="Path 3801" class="cls-4" d="M251.94,51.75v60.47"/><g id="Group_13092-2" data-name="Group 13092-2"><g id="_40_2" data-name=" 40 2" class="cls-5"><g class="cls-5"><path class="cls-6" d="M304.76,76.7l-.22,0-.55.09c-.59.11-1.26.21-2,.3-2.25.3-4.67.51-7.24.64-.85,0-1.68,0-2.49,0a37,37,0,0,1-10.95-1.49c.2,2.6.32,5.38.36,8.32,0,1.14,0,2.38,0,3.71v6.07h-9.1V91.67c0-1.09,0-2,0-2.63,0-1,0-2,0-2.83,0-2.24-.07-4.34-.17-6.32a102,102,0,0,0-1.69-14.42c-.14-.59-.25-1-.3-1.36h0c-.6-2.75-1.28-5.36-2.06-7.82l8.65-2.74a92.86,92.86,0,0,1,2.56,9.92q.17.56.27.81v-.47l0-.5a7.09,7.09,0,0,1,.08-1,16.2,16.2,0,0,1,.36-1.58,13,13,0,0,1,1.86-4q3.63-5.26,11.17-5.27a12.6,12.6,0,0,1,4.8.94c.61.26,1.3.6,2.08,1,.27.17.63.37,1,.61l1.11.66.8.5.42.25.44.25-4.41,7.57a20.86,20.86,0,0,0-3.16-1.49,11.66,11.66,0,0,0-3.91-.75,4.91,4.91,0,0,0-3.1.94,2.92,2.92,0,0,0-1.22,2.14,3.83,3.83,0,0,0,0,.47A3.67,3.67,0,0,0,290,67.74a8.46,8.46,0,0,0,4.85,1.19,17.42,17.42,0,0,0,2-.11,40.7,40.7,0,0,0,5.69-.91Z"/><path class="cls-6" d="M332.55,68.74a13.42,13.42,0,0,1-9.49,22.9,13.43,13.43,0,0,1-13.42-13.42,13.41,13.41,0,0,1,22.91-9.48Zm-6.44,12.53a4.16,4.16,0,0,0,1.28-3,4.35,4.35,0,0,0-4.33-4.32A4.16,4.16,0,0,0,320,75.17a4.1,4.1,0,0,0-1.27,3,4.35,4.35,0,0,0,4.32,4.33A4.09,4.09,0,0,0,326.11,81.27Z"/></g><g class="cls-5"><path class="cls-6" d="M345.5,67.62l-5-5,5-5,5,5ZM349.9,94h-7.43l14.3-36.45h7.45Zm10.42.11-5-5,5-5,5,5Z"/></g></g></g><g id="Group_13093" data-name="Group 13093"><g id="تخفیف-11" class="cls-5"><g class="cls-5"><path class="cls-6" d="M281.5,105.26a6.14,6.14,0,0,1,1.67,4.37,6.08,6.08,0,0,1-.51,2.53h1.46v4h-1.78a18,18,0,0,1-5.22-.67,17.32,17.32,0,0,1-5.23.67h-4.82a32.93,32.93,0,0,1-4.43-.17,4.12,4.12,0,0,1-2.89-1.83A5.18,5.18,0,0,1,259,112a9,9,0,0,1-.05-.92A10.38,10.38,0,0,1,259,110a16.57,16.57,0,0,1,.46-2.17c.07-.3.15-.61.24-.92q0-.17.09-.3c0-.07,0-.12,0-.13l3.87,1.09a28.36,28.36,0,0,0-.83,3.66,1.23,1.23,0,0,0,0,.19.88.88,0,0,0,.09.41.54.54,0,0,0,.53.32h8.13a6.54,6.54,0,0,1,1.16-6.9,6.17,6.17,0,0,1,8.77,0Zm-6.91-5.69L277.15,97l2.6,2.6-2.59,2.58Zm4.27,11.25a1.86,1.86,0,0,0,.37-1.19,2.22,2.22,0,0,0-.49-1.46,1.94,1.94,0,0,0-1.62-.71,2,2,0,0,0-1.62.71,2.22,2.22,0,0,0-.49,1.46,1.86,1.86,0,0,0,.38,1.19,3.13,3.13,0,0,0,1.73,1A3.16,3.16,0,0,0,278.86,110.82Z"/><path class="cls-6" d="M293.5,111a1.08,1.08,0,0,0,.29.84,1.77,1.77,0,0,0,1.13.28h1.79v4h-1.79a6.08,6.08,0,0,1-1.51-.17,4.6,4.6,0,0,1-1.06-.38,3.29,3.29,0,0,1-.85-.54,3.06,3.06,0,0,1-.9.54,7.19,7.19,0,0,1-3,.55h-4.12v-4h4.4a2,2,0,0,0,1.24-.3,1,1,0,0,0,.32-.82V107.7h4Zm-6.78,12.25-2.41-2.43,2.37-2.46,2.46,2.46Zm5.18,0-2.41-2.43,2.38-2.46,2.46,2.46Z"/><path class="cls-6" d="M307.54,105.26a6.54,6.54,0,0,1,1.16,6.9h1.46v4h-1.78a18,18,0,0,1-5.22-.67,17.29,17.29,0,0,1-5.22.67h-1.78v-4h1.46a5.93,5.93,0,0,1-.52-2.53,6.14,6.14,0,0,1,1.67-4.37,6.17,6.17,0,0,1,8.77,0Zm-7-5.58,2.56-2.58,2.6,2.6-2.59,2.58Zm4.39,11.14a1.91,1.91,0,0,0,.36-1.19,2.22,2.22,0,0,0-.49-1.46,1.94,1.94,0,0,0-1.62-.71,2,2,0,0,0-1.62.71,2.28,2.28,0,0,0-.49,1.46,1.86,1.86,0,0,0,.38,1.19,3.16,3.16,0,0,0,1.73,1A3.23,3.23,0,0,0,304.91,110.82Z"/><path class="cls-6" d="M316.64,104.75q1,.14,5,1.25c.93.25,1.91.52,3,.82l1.89.55.63,3.55-.36.27-.35.24-.66.5a9.41,9.41,0,0,0,1.76.2l.87,0H329v4a13.9,13.9,0,0,1-5.36-.74,4.51,4.51,0,0,1-1.54-1.16,13.66,13.66,0,0,1-2.14,1c-1.89.63-5.34,1-10.37,1v-4a50.19,50.19,0,0,0,7-.35,12,12,0,0,0,4.69-1.73l-.9-.24-.86-.25-1.58-.44a11.51,11.51,0,0,0-2-.44.81.81,0,0,0-.62.38,2.5,2.5,0,0,0-.47,1l-3.89-1a6.08,6.08,0,0,1,2.1-3.38,4.46,4.46,0,0,1,2.8-1A4.06,4.06,0,0,1,316.64,104.75Zm-3.25-4.23L315.94,98l2.6,2.6L316,103.13Z"/><path class="cls-6" d="M339.06,110a6.4,6.4,0,0,1,.1,1.13,5,5,0,0,1-1,3c-1,1.41-2.69,2.11-5,2.11h-4.8v-4h4.71a3,3,0,0,0,1.56-.3,1,1,0,0,0,.47-.89,2.17,2.17,0,0,0,0-.41c-.09-.41-.17-.84-.25-1.27,0-.17-.06-.34-.1-.53l-.05-.23,0-.24c-.13-.67-.22-1.15-.29-1.43l3.85-1.17C338.47,106.84,338.75,108.26,339.06,110Zm-7.67-6.11L329,101.41,331.35,99l2.46,2.46Zm5.14,0-2.4-2.42,2.38-2.46L339,101.4Z"/></g><g class="cls-5"><path class="cls-7" d="M281.5,104.26a6.14,6.14,0,0,1,1.67,4.37,6.08,6.08,0,0,1-.51,2.53h1.46v4h-1.78a18,18,0,0,1-5.22-.67,17.32,17.32,0,0,1-5.23.67h-4.82a32.93,32.93,0,0,1-4.43-.17,4.12,4.12,0,0,1-2.89-1.83A5.18,5.18,0,0,1,259,111a9,9,0,0,1-.05-.92A10.38,10.38,0,0,1,259,109a16.57,16.57,0,0,1,.46-2.17c.07-.3.15-.61.24-.92q0-.17.09-.3c0-.07,0-.12,0-.13l3.87,1.09a28.36,28.36,0,0,0-.83,3.66,1.23,1.23,0,0,0,0,.19.88.88,0,0,0,.09.41.54.54,0,0,0,.53.32h8.13a6.54,6.54,0,0,1,1.16-6.9,6.17,6.17,0,0,1,8.77,0Zm-6.91-5.69L277.15,96l2.6,2.6-2.59,2.58Zm4.27,11.25a1.86,1.86,0,0,0,.37-1.19,2.22,2.22,0,0,0-.49-1.46,1.94,1.94,0,0,0-1.62-.71,2,2,0,0,0-1.62.71,2.22,2.22,0,0,0-.49,1.46,1.86,1.86,0,0,0,.38,1.19,3.13,3.13,0,0,0,1.73,1A3.16,3.16,0,0,0,278.86,109.82Z"/><path class="cls-7" d="M293.5,110a1.08,1.08,0,0,0,.29.84,1.77,1.77,0,0,0,1.13.28h1.79v4h-1.79a6.08,6.08,0,0,1-1.51-.17,4.6,4.6,0,0,1-1.06-.38,3.29,3.29,0,0,1-.85-.54,3.06,3.06,0,0,1-.9.54,7.19,7.19,0,0,1-3,.55h-4.12v-4h4.4a2,2,0,0,0,1.24-.3,1,1,0,0,0,.32-.82V106.7h4Zm-6.78,12.25-2.41-2.43,2.37-2.46,2.46,2.46Zm5.18,0-2.41-2.43,2.38-2.46,2.46,2.46Z"/><path class="cls-7" d="M307.54,104.26a6.54,6.54,0,0,1,1.16,6.9h1.46v4h-1.78a18,18,0,0,1-5.22-.67,17.29,17.29,0,0,1-5.22.67h-1.78v-4h1.46a5.93,5.93,0,0,1-.52-2.53,6.14,6.14,0,0,1,1.67-4.37,6.17,6.17,0,0,1,8.77,0Zm-7-5.58,2.56-2.58,2.6,2.6-2.59,2.58Zm4.39,11.14a1.91,1.91,0,0,0,.36-1.19,2.22,2.22,0,0,0-.49-1.46,1.94,1.94,0,0,0-1.62-.71,2,2,0,0,0-1.62.71,2.28,2.28,0,0,0-.49,1.46,1.86,1.86,0,0,0,.38,1.19,3.16,3.16,0,0,0,1.73,1A3.23,3.23,0,0,0,304.91,109.82Z"/><path class="cls-7" d="M316.64,103.75q1,.14,5,1.25c.93.25,1.91.52,3,.82l1.89.55.63,3.55-.36.27-.35.24-.66.5a9.41,9.41,0,0,0,1.76.2l.87,0H329v4a13.9,13.9,0,0,1-5.36-.74,4.51,4.51,0,0,1-1.54-1.16,13.66,13.66,0,0,1-2.14,1c-1.89.63-5.34,1-10.37,1v-4a50.19,50.19,0,0,0,7-.35,12,12,0,0,0,4.69-1.73l-.9-.24-.86-.25-1.58-.44a11.51,11.51,0,0,0-2-.44.81.81,0,0,0-.62.38,2.5,2.5,0,0,0-.47,1l-3.89-1a6.08,6.08,0,0,1,2.1-3.38,4.46,4.46,0,0,1,2.8-1A4.06,4.06,0,0,1,316.64,103.75Zm-3.25-4.23L315.94,97l2.6,2.6L316,102.13Z"/><path class="cls-7" d="M339.06,109a6.4,6.4,0,0,1,.1,1.13,5,5,0,0,1-1,3c-1,1.41-2.69,2.11-5,2.11h-4.8v-4h4.71a3,3,0,0,0,1.56-.3,1,1,0,0,0,.47-.89,2.17,2.17,0,0,0,0-.41c-.09-.41-.17-.84-.25-1.27,0-.17-.06-.34-.1-.53l-.05-.23,0-.24c-.13-.67-.22-1.15-.29-1.43l3.85-1.17C338.47,105.84,338.75,107.26,339.06,109Zm-7.67-6.11L329,100.41,331.35,98l2.46,2.46Zm5.14,0-2.4-2.42,2.38-2.46L339,100.4Z"/></g></g><g id="تخفیف-12" class="cls-5"><g class="cls-5"><path class="cls-6" d="M281.5,104.26a6.14,6.14,0,0,1,1.67,4.37,6.08,6.08,0,0,1-.51,2.53h1.46v4h-1.78a18,18,0,0,1-5.22-.67,17.32,17.32,0,0,1-5.23.67h-4.82a32.93,32.93,0,0,1-4.43-.17,4.12,4.12,0,0,1-2.89-1.83A5.18,5.18,0,0,1,259,111a9,9,0,0,1-.05-.92A10.38,10.38,0,0,1,259,109a16.57,16.57,0,0,1,.46-2.17c.07-.3.15-.61.24-.92q0-.17.09-.3c0-.07,0-.12,0-.13l3.87,1.09a28.36,28.36,0,0,0-.83,3.66,1.23,1.23,0,0,0,0,.19.88.88,0,0,0,.09.41.54.54,0,0,0,.53.32h8.13a6.54,6.54,0,0,1,1.16-6.9,6.17,6.17,0,0,1,8.77,0Zm-6.91-5.69L277.15,96l2.6,2.6-2.59,2.58Zm4.27,11.25a1.86,1.86,0,0,0,.37-1.19,2.22,2.22,0,0,0-.49-1.46,1.94,1.94,0,0,0-1.62-.71,2,2,0,0,0-1.62.71,2.22,2.22,0,0,0-.49,1.46,1.86,1.86,0,0,0,.38,1.19,3.13,3.13,0,0,0,1.73,1A3.16,3.16,0,0,0,278.86,109.82Z"/><path class="cls-6" d="M293.5,110a1.08,1.08,0,0,0,.29.84,1.77,1.77,0,0,0,1.13.28h1.79v4h-1.79a6.08,6.08,0,0,1-1.51-.17,4.6,4.6,0,0,1-1.06-.38,3.29,3.29,0,0,1-.85-.54,3.06,3.06,0,0,1-.9.54,7.19,7.19,0,0,1-3,.55h-4.12v-4h4.4a2,2,0,0,0,1.24-.3,1,1,0,0,0,.32-.82V106.7h4Zm-6.78,12.25-2.41-2.43,2.37-2.46,2.46,2.46Zm5.18,0-2.41-2.43,2.38-2.46,2.46,2.46Z"/><path class="cls-6" d="M307.54,104.26a6.54,6.54,0,0,1,1.16,6.9h1.46v4h-1.78a18,18,0,0,1-5.22-.67,17.29,17.29,0,0,1-5.22.67h-1.78v-4h1.46a5.93,5.93,0,0,1-.52-2.53,6.14,6.14,0,0,1,1.67-4.37,6.17,6.17,0,0,1,8.77,0Zm-7-5.58,2.56-2.58,2.6,2.6-2.59,2.58Zm4.39,11.14a1.91,1.91,0,0,0,.36-1.19,2.22,2.22,0,0,0-.49-1.46,1.94,1.94,0,0,0-1.62-.71,2,2,0,0,0-1.62.71,2.28,2.28,0,0,0-.49,1.46,1.86,1.86,0,0,0,.38,1.19,3.16,3.16,0,0,0,1.73,1A3.23,3.23,0,0,0,304.91,109.82Z"/><path class="cls-6" d="M316.64,103.75q1,.14,5,1.25c.93.25,1.91.52,3,.82l1.89.55.63,3.55-.36.27-.35.24-.66.5a9.41,9.41,0,0,0,1.76.2l.87,0H329v4a13.9,13.9,0,0,1-5.36-.74,4.51,4.51,0,0,1-1.54-1.16,13.66,13.66,0,0,1-2.14,1c-1.89.63-5.34,1-10.37,1v-4a50.19,50.19,0,0,0,7-.35,12,12,0,0,0,4.69-1.73l-.9-.24-.86-.25-1.58-.44a11.51,11.51,0,0,0-2-.44.81.81,0,0,0-.62.38,2.5,2.5,0,0,0-.47,1l-3.89-1a6.08,6.08,0,0,1,2.1-3.38,4.46,4.46,0,0,1,2.8-1A4.06,4.06,0,0,1,316.64,103.75Zm-3.25-4.23L315.94,97l2.6,2.6L316,102.13Z"/><path class="cls-6" d="M339.06,109a6.4,6.4,0,0,1,.1,1.13,5,5,0,0,1-1,3c-1,1.41-2.69,2.11-5,2.11h-4.8v-4h4.71a3,3,0,0,0,1.56-.3,1,1,0,0,0,.47-.89,2.17,2.17,0,0,0,0-.41c-.09-.41-.17-.84-.25-1.27,0-.17-.06-.34-.1-.53l-.05-.23,0-.24c-.13-.67-.22-1.15-.29-1.43l3.85-1.17C338.47,105.84,338.75,107.26,339.06,109Zm-7.67-6.11L329,100.41,331.35,98l2.46,2.46Zm5.14,0-2.4-2.42,2.38-2.46L339,100.4Z"/></g></g></g><g id="خرید_اشتراک_طاقچه_بی_نهایت" data-name="خرید اشتراک طاقچه بی نهایت" class="cls-5"><g class="cls-5"><path class="cls-8" d="M219.22,140a2.88,2.88,0,0,1,.33,1.13v.1a2.09,2.09,0,0,1-.19.89,2.24,2.24,0,0,1-.59.78,3.44,3.44,0,0,1-.94.6,6,6,0,0,1-1.22.38,7,7,0,0,1-1.41.13h-2.07a4.17,4.17,0,0,1-2.07-.5,4.08,4.08,0,0,1-2-2.78,5.45,5.45,0,0,1-.14-1.23q0-.19,0-.72a7,7,0,0,1,.31-1.48,12.19,12.19,0,0,1,.76-2l1.22.6a9,9,0,0,0-.92,3.1c0,.16,0,.31,0,.45a3.6,3.6,0,0,0,.48,1.9,2.56,2.56,0,0,0,1,.93,3,3,0,0,0,1.39.31h2.07a5.29,5.29,0,0,0,.8-.06,4.21,4.21,0,0,0,.74-.17,3.39,3.39,0,0,0,.61-.26,2.17,2.17,0,0,0,.47-.33.93.93,0,0,0,.25-.39.54.54,0,0,0,0-.22.48.48,0,0,0,0-.2.85.85,0,0,0-.41-.48,2.58,2.58,0,0,0-.77-.3,5.61,5.61,0,0,0-1-.16c-.35,0-.69-.05-1-.05l0-1.38h6.27V140Z"/><path class="cls-8" d="M223.28,134.08l.06.23c0,.13.06.29.09.47s.08.39.12.62.09.45.12.68.06.46.09.67,0,.4,0,.56a2.76,2.76,0,0,1-.23,1.2,2.36,2.36,0,0,1-1.42,1.33,2.66,2.66,0,0,1-.92.16h-1.86v-1.38h1.86l.31,0a1,1,0,0,0,.4-.16,1.22,1.22,0,0,0,.35-.39,1.5,1.5,0,0,0,.15-.73,3.58,3.58,0,0,0,0-.41c0-.16,0-.33-.06-.52s-.06-.38-.1-.57-.06-.38-.1-.56-.06-.33-.09-.47-.05-.23-.07-.3Zm-2.52,8.56,1.24-1.25,1.26,1.26L222,143.9Z"/><path class="cls-8" d="M238.69,140h-.18a4.06,4.06,0,0,1-2-.5,3.36,3.36,0,0,1-1.33-1.39,2.44,2.44,0,0,1-.56.55,3.67,3.67,0,0,1-.73.42,2.31,2.31,0,0,1-.54.16,4.37,4.37,0,0,1-.64,0,2.92,2.92,0,0,1-.71-.08,2.41,2.41,0,0,1-.7-.27,2.21,2.21,0,0,1-.84-.73,2.61,2.61,0,0,1-.42-1.07,3,3,0,0,1,.14-1.6,3,3,0,0,1,.75-1.16,6.4,6.4,0,0,1,2.82-1.56l-.14-.78,1.34-.29q.17.74.3,1.29c.09.38.17.72.23,1,0,.06,0,.15.07.29s.07.29.12.47.09.37.13.57l.15.59c.05.2.09.38.14.55s.08.31.11.42a2.2,2.2,0,0,0,.43.88,2.25,2.25,0,0,0,.62.51,2.19,2.19,0,0,0,.68.23,3.59,3.59,0,0,0,.62.05h.18Zm-4.62-5.85a6.47,6.47,0,0,0-1.27.5,3.92,3.92,0,0,0-.92.64,2.12,2.12,0,0,0-.51.76,1.49,1.49,0,0,0-.1.55,1.53,1.53,0,0,0,0,.3,1,1,0,0,0,.22.51,1.23,1.23,0,0,0,.39.33,1.07,1.07,0,0,0,.35.14,1.64,1.64,0,0,0,.38,0h.07a1.63,1.63,0,0,0,.31,0,1,1,0,0,0,.3-.08,1.66,1.66,0,0,0,1.07-1.37,3.49,3.49,0,0,0,0-.44c0-.07,0-.18,0-.31a2.35,2.35,0,0,0-.05-.29Z"/><path class="cls-8" d="M248.25,137.09l-.36.25-.85.53a.82.82,0,0,0,.26.42,1.17,1.17,0,0,0,.37.22,1.36,1.36,0,0,0,.37.1h1.78V140h-1.53a2.86,2.86,0,0,1-1-.16,2.46,2.46,0,0,1-.84-.46,2.37,2.37,0,0,1-.64-.86q-.56.28-1.2.54a13.75,13.75,0,0,1-1.32.48,10.87,10.87,0,0,1-1.42.33,7.79,7.79,0,0,1-1.44.13h-2v-1.38h2a7.27,7.27,0,0,0,1.65-.19,13.5,13.5,0,0,0,1.6-.48,15,15,0,0,0,1.45-.62c.45-.23.84-.44,1.18-.64l-1.4-.55-1.29-.48c-.38-.14-.72-.25-1-.34l-.55-.15-.26,0a.67.67,0,0,0-.27.13,1.43,1.43,0,0,0-.25.34,3,3,0,0,0-.23.65l-1.33-.35c.37-1.44,1.15-2.16,2.35-2.16h.12l.21,0,.37.1.59.2.88.31,1.24.48,2.57.95Zm-4.92,5.58-1.18,1.18L241,142.67l1.14-1.16Zm.26,3.15-1.05-1,1-1,1,1Zm2.52-3.17-1.18,1.18-1.13-1.18,1.15-1.16Z"/><path class="cls-8" d="M249.51,140v-1.38h3.23a5.86,5.86,0,0,0,1.31-.11,3,3,0,0,0,.78-.29,1,1,0,0,0,.37-.38,1.07,1.07,0,0,0,.12-.4h-1.53l-.48-.06a4.7,4.7,0,0,1-.51-.12,2.33,2.33,0,0,1-.49-.21,4.41,4.41,0,0,1-.4-.29,2,2,0,0,1-.37-.43,2.52,2.52,0,0,1-.27-.62,2.88,2.88,0,0,1-.1-.82,3.22,3.22,0,0,1,.2-1.12,2.6,2.6,0,0,1,1.45-1.48,2.75,2.75,0,0,1,1-.19,2.51,2.51,0,0,1,1.16.27,2.46,2.46,0,0,1,.9.77,3.65,3.65,0,0,1,.58,1.29,7.81,7.81,0,0,1,.19,1.77v1a2.77,2.77,0,0,1-.29,1.28,2.17,2.17,0,0,1-.87.91,5.2,5.2,0,0,1-2.79.62Zm2.92-9.25-1.15-1.16,1.14-1.18,1.18,1.18Zm1.43,2.71a1.46,1.46,0,0,0-.49.09,1.24,1.24,0,0,0-.45.25,1.14,1.14,0,0,0-.33.44,1.41,1.41,0,0,0-.13.64,1.5,1.5,0,0,0,0,.4,1.13,1.13,0,0,0,.13.27.91.91,0,0,0,.17.17,1.2,1.2,0,0,0,.17.11,1.67,1.67,0,0,0,.52.18,3.8,3.8,0,0,0,.72.05h1.12a5.71,5.71,0,0,0-.15-1.25,2.77,2.77,0,0,0-.37-.88A1.13,1.13,0,0,0,253.86,133.46Zm1.36-2.7-1.15-1.16,1.13-1.18,1.18,1.18Z"/><path class="cls-8" d="M261.83,140a7,7,0,0,1-1.26-.11,3,3,0,0,1-.85-.28,1.67,1.67,0,0,1-.55-.46,2.25,2.25,0,0,1-.32-.66,3.49,3.49,0,0,1-.15-.84c0-.31,0-.65,0-1v-7H260v7c0,.42,0,.76,0,1a1.22,1.22,0,0,0,.21.61.92.92,0,0,0,.52.29,5.13,5.13,0,0,0,1,.08Z"/><path class="cls-8" d="M261.54,140v-1.38h1.63a6.36,6.36,0,0,0,.35-.58c.12-.2.24-.4.37-.59v-7.83h1.36v5.87a7.23,7.23,0,0,1,.66-.69,4.16,4.16,0,0,1,.71-.56,3.47,3.47,0,0,1,.78-.37,2.82,2.82,0,0,1,.87-.13,2.9,2.9,0,0,1,1,.19,2.55,2.55,0,0,1,.92.61,2.88,2.88,0,0,1,.65,1,3.92,3.92,0,0,1,.25,1.48,3.65,3.65,0,0,1-.12,1,2.72,2.72,0,0,1-.34.75,2.25,2.25,0,0,1-.5.56,3,3,0,0,1-.62.38,2.68,2.68,0,0,1-.68.21,3.21,3.21,0,0,1-.68.07Zm6.65-1.38h.17l.26,0a1.72,1.72,0,0,0,.28-.08,1.11,1.11,0,0,0,.29-.14,1.08,1.08,0,0,0,.43-.51,2,2,0,0,0,.14-.8,2.25,2.25,0,0,0-.4-1.43,1.29,1.29,0,0,0-1.09-.51,1.51,1.51,0,0,0-.66.14,3.22,3.22,0,0,0-.63.41,5,5,0,0,0-.6.61c-.19.23-.38.47-.56.73s-.36.53-.53.8l-.49.8v0Z"/><path class="cls-8" d="M284.77,140.06h-4.32a3.08,3.08,0,0,1-1-.18,2.25,2.25,0,0,1-.81-.5,2.31,2.31,0,0,1-.29-.32,1.61,1.61,0,0,1-.26-.45,3.56,3.56,0,0,1-.2-.58,3.23,3.23,0,0,1-.07-.73,4.73,4.73,0,0,1,.07-.8c.05-.29.11-.56.17-.82s.12-.49.17-.68.09-.31.1-.35l1.31.41c0,.1-.07.25-.12.43s-.1.39-.15.6-.09.43-.13.65a3,3,0,0,0,0,.56,1.63,1.63,0,0,0,.15.76,1.12,1.12,0,0,0,.36.41,1.32,1.32,0,0,0,.41.18l.32,0h4.29l1.6,0a11.81,11.81,0,0,0,1.2-.1,2.64,2.64,0,0,0,.79-.24.82.82,0,0,0,.41-.41.48.48,0,0,0,0-.18,1.29,1.29,0,0,0-.06-.33,2.75,2.75,0,0,0-.24-.52q-.18-.31-.42-.66a8.49,8.49,0,0,0-.55-.67c-.4-.44-.76-.81-1.11-1.13s-.65-.59-.93-.82a8.24,8.24,0,0,0-.7-.52l-.43-.28.1-1.65,6.57-2.82.55,1.25-5.76,2.49c.19.14.39.29.6.47s.44.37.68.59l.71.71c.24.26.49.52.73.8l.54.7a6.77,6.77,0,0,1,.48.75,4,4,0,0,1,.34.77,2.37,2.37,0,0,1,.14.77v.14a.78.78,0,0,1,0,.14,2.13,2.13,0,0,1-.29.88,2.07,2.07,0,0,1-.59.59,2.87,2.87,0,0,1-.83.37,6.39,6.39,0,0,1-1,.2,11.33,11.33,0,0,1-1.2.08Z"/><path class="cls-8" d="M294.43,140h-1.38V129.62h1.38Z"/><path class="cls-8" d="M301,140h-.31a2.9,2.9,0,0,1-1.29-.28,5.66,5.66,0,0,1-.28,1.82,3.74,3.74,0,0,1-.83,1.36,3.52,3.52,0,0,1-1.35.84,5.15,5.15,0,0,1-1.82.3h-1v-1.38h1a4.14,4.14,0,0,0,1.29-.18A2.11,2.11,0,0,0,297.8,141a4.62,4.62,0,0,0,.17-1.37v-4.54h1.38v2.41a1.1,1.1,0,0,0,.17.64,1.17,1.17,0,0,0,.4.34,1.5,1.5,0,0,0,.43.13,1.87,1.87,0,0,0,.29,0H301Z"/><path class="cls-8" d="M308.6,138.62V140h-1.27a3.26,3.26,0,0,1-1.17-.19,1.78,1.78,0,0,1-.81-.57,3,3,0,0,1-2.24.76h-2.47v-1.38h2.47a2.68,2.68,0,0,0,.83-.1,1.24,1.24,0,0,0,.46-.26.78.78,0,0,0,.2-.35,1.22,1.22,0,0,0,0-.37v-2.46H306v2.41a1.26,1.26,0,0,0,.08.46,1.48,1.48,0,0,0,.21.32,1,1,0,0,0,.28.2,1.76,1.76,0,0,0,.3.1,1.66,1.66,0,0,0,.26.05h1.45Zm-5.14-5.33-1.15-1.16,1.13-1.18,1.18,1.18Zm2.78,0-1.15-1.16,1.14-1.18,1.18,1.18Z"/><path class="cls-8" d="M314,140a3.23,3.23,0,0,1-1.21-.2,2.31,2.31,0,0,1-.9-.57,2.3,2.3,0,0,1-.88.6,2.74,2.74,0,0,1-1,.19h-1.67v-1.38H310l.31,0a.91.91,0,0,0,.4-.16A1.2,1.2,0,0,0,311,138a1.5,1.5,0,0,0,.15-.73v-2.21h1.37v2.18a1.4,1.4,0,0,0,.33,1,1.51,1.51,0,0,0,1.09.33l.31,0a1.18,1.18,0,0,0,.4-.18A1.2,1.2,0,0,0,315,138a1.5,1.5,0,0,0,.15-.73v-2.18h1.36v2.18a1.4,1.4,0,0,0,.35,1,1.51,1.51,0,0,0,1.09.33,1.45,1.45,0,0,0,.32,0,1.21,1.21,0,0,0,.39-.2A1.29,1.29,0,0,0,319,138a1.62,1.62,0,0,0,.14-.72,3.28,3.28,0,0,0,0-.4c0-.16,0-.33-.07-.52s-.05-.37-.09-.56-.06-.37-.1-.54-.06-.32-.09-.45-.06-.23-.08-.3l1.31-.41a1.82,1.82,0,0,1,.05.23c0,.12.07.28.11.46s.07.38.12.6.08.45.11.68.07.44.09.65a4,4,0,0,1,0,.56,3,3,0,0,1-.23,1.2,2.51,2.51,0,0,1-.58.85,2.26,2.26,0,0,1-.82.51,2.69,2.69,0,0,1-.92.18,3.37,3.37,0,0,1-1.23-.21,2.45,2.45,0,0,1-.9-.6,2.47,2.47,0,0,1-.88.6A2.73,2.73,0,0,1,314,140Zm.56-6.9-1.15-1.16,1.14-1.18,1.17,1.18Zm2.43-3.27-1,1-1-1,1.05-1Zm.36,3.29-1.15-1.17,1.13-1.17,1.18,1.17Z"/><path class="cls-8" d="M324.19,140h-1.37V129.62h1.37Z"/><path class="cls-8" d="M339.91,138.62V140h-.27a2.81,2.81,0,0,1-2-.9,2.74,2.74,0,0,1-1.91.93l-.54.06-.59,0-.75,0c-.25,0-.5-.06-.74-.11a3.88,3.88,0,0,1-.69-.18,3.11,3.11,0,0,1-.61-.26l-.59-.35.68-1.2.6.35a2.69,2.69,0,0,0,.63.23,4.53,4.53,0,0,0,.78.13l.62,0h.37l.63-.06a2.64,2.64,0,0,0,.69-.18.61.61,0,0,0,.35-.28.29.29,0,0,0,.07-.18.81.81,0,0,0-.06-.24,1.73,1.73,0,0,0-.22-.43l-2.73-4.15,1.16-.76,2.82,4.31.44.64a5.79,5.79,0,0,0,.47.61,2.71,2.71,0,0,0,.52.45,1,1,0,0,0,.6.17Z"/><path class="cls-8" d="M344.66,134.08l.06.23c0,.13.07.29.1.47s.08.39.12.62l.12.68c0,.23.06.46.08.67a4,4,0,0,1,0,.56,2.92,2.92,0,0,1-.23,1.2,2.36,2.36,0,0,1-1.42,1.33,2.7,2.7,0,0,1-.92.16h-3v-1.38h3l.31,0a1,1,0,0,0,.4-.16,1.09,1.09,0,0,0,.34-.39,1.5,1.5,0,0,0,.15-.73,3.26,3.26,0,0,0,0-.41c0-.16,0-.33-.07-.52a5.62,5.62,0,0,0-.09-.57c0-.2-.07-.38-.1-.56s-.07-.33-.09-.47-.06-.23-.08-.3Zm-2.17,8.7L341.31,144l-1.13-1.18,1.15-1.16Zm2.79,0L344.1,144,343,142.77l1.15-1.16Z"/><path class="cls-8" d="M353.17,140h-.31a3,3,0,0,1-1.29-.28,5.39,5.39,0,0,1-.28,1.82,3.74,3.74,0,0,1-.83,1.36,3.48,3.48,0,0,1-1.34.84,5.16,5.16,0,0,1-1.83.3h-1v-1.38h1a4.21,4.21,0,0,0,1.3-.18,2.21,2.21,0,0,0,.91-.55A2.27,2.27,0,0,0,350,141a5,5,0,0,0,.17-1.37v-4.54h1.37v2.41a1.1,1.1,0,0,0,.17.64,1.27,1.27,0,0,0,.4.34,1.6,1.6,0,0,0,.43.13,1.94,1.94,0,0,0,.29,0h.31Z"/><path class="cls-8" d="M362.69,137.09l-.38.26c-.23.15-.52.33-.89.54s-.81.45-1.3.7a15.7,15.7,0,0,1-1.6.68,14.13,14.13,0,0,1-1.78.52,8.44,8.44,0,0,1-1.87.21h-2v-1.38h2a7.14,7.14,0,0,0,1.65-.19,13.66,13.66,0,0,0,1.61-.48c.51-.19,1-.4,1.44-.62s.85-.44,1.19-.64l-1.41-.55-1.28-.48-1-.34-.56-.15-.26,0a.64.64,0,0,0-.26.13,1.43,1.43,0,0,0-.26.34,3,3,0,0,0-.23.65l-1.33-.35c.37-1.44,1.16-2.16,2.36-2.16h.11l.21,0,.37.1.6.2.87.31,1.24.48,2.57.95ZM355,130.83l1.24-1.25,1.26,1.26-1.25,1.25Z"/></g><text class="cls-9" transform="translate(208.21 140)">‌</text><g class="cls-5"><path class="cls-8" d="M185.36,138.62V140h-.22a3.33,3.33,0,0,1-1-.15,2.86,2.86,0,0,1-.84-.46l-.09-.07-.08-.09a3.06,3.06,0,0,1-2.24.77h-8.25a2.78,2.78,0,0,1-1-.17,2.69,2.69,0,0,1-.81-.5l-.29-.32a3.14,3.14,0,0,1-.26-.45,2.81,2.81,0,0,1-.2-.58,3.17,3.17,0,0,1-.07-.73,4.73,4.73,0,0,1,.07-.8c.05-.29.11-.56.17-.83s.12-.48.17-.67.09-.31.11-.35l1.31.41c0,.11-.08.25-.13.44s-.1.38-.15.6-.1.42-.13.64a3.15,3.15,0,0,0-.06.56,1.51,1.51,0,0,0,.16.76,1.12,1.12,0,0,0,.36.41,1,1,0,0,0,.41.18l.32,0h8.19a2.78,2.78,0,0,0,.85-.1,1.35,1.35,0,0,0,.48-.28.73.73,0,0,0,.21-.37,1.73,1.73,0,0,0,0-.38V135h1.37v2.48a1.08,1.08,0,0,0,.18.66,1.34,1.34,0,0,0,.41.35,1.45,1.45,0,0,0,.45.14,2.16,2.16,0,0,0,.31,0Zm-9.93-4.21-1.15-1.16,1.13-1.18,1.18,1.18Zm2.78,0-1.14-1.16,1.13-1.18,1.18,1.18Z"/><path class="cls-8" d="M190.05,134.08l.06.23c0,.13.06.29.1.47s.08.39.12.62l.12.68c0,.23.06.46.08.67a4,4,0,0,1,0,.56,2.92,2.92,0,0,1-.23,1.2,2.36,2.36,0,0,1-1.42,1.33,2.7,2.7,0,0,1-.92.16h-3v-1.38h3l.31,0a1,1,0,0,0,.4-.16,1.2,1.2,0,0,0,.34-.39,1.5,1.5,0,0,0,.15-.73,3.26,3.26,0,0,0,0-.41c0-.16,0-.33-.07-.52a5.62,5.62,0,0,0-.09-.57c0-.2-.07-.38-.1-.56s-.07-.33-.09-.47-.06-.23-.08-.3Zm-2.17,8.7L186.7,144l-1.13-1.18,1.15-1.16Zm2.79,0L189.49,144l-1.14-1.18,1.15-1.16Z"/><path class="cls-8" d="M196.12,140a7,7,0,0,1-1.26-.11,3,3,0,0,1-.85-.28,1.67,1.67,0,0,1-.55-.46,2.25,2.25,0,0,1-.32-.66,4,4,0,0,1-.16-.84c0-.31,0-.65,0-1v-7h1.37v7c0,.42,0,.76,0,1a1.22,1.22,0,0,0,.21.61.92.92,0,0,0,.52.29,5.13,5.13,0,0,0,1,.08Z"/><path class="cls-8" d="M200.48,133.8a3.62,3.62,0,0,1,1.13.17,2.39,2.39,0,0,1,.84.52,2.27,2.27,0,0,1,.53.84,3.15,3.15,0,0,1,.18,1.11,2.92,2.92,0,0,1-.12.79,2.32,2.32,0,0,1-.43.82,3.63,3.63,0,0,1-.89.77,5.63,5.63,0,0,1-1.47.64,8.47,8.47,0,0,1-1.3.31,3.08,3.08,0,0,0,.34.9,3.94,3.94,0,0,0,.61.8,4.48,4.48,0,0,0,.79.65,4.25,4.25,0,0,0,.9.46,1.24,1.24,0,0,1-.27-.46,2.62,2.62,0,0,1-.12-.57,2.35,2.35,0,0,1,0-.26,3.28,3.28,0,0,1,0-.4,2.27,2.27,0,0,1,.54-1.21,2.45,2.45,0,0,1,.6-.56,3,3,0,0,1,.74-.37,3,3,0,0,1,.84-.13h1.34V140h-1.34a1.37,1.37,0,0,0-.8.24,1.46,1.46,0,0,0-.51.66,1.39,1.39,0,0,0-.1.53,2,2,0,0,0,.13.62,2.08,2.08,0,0,0,.62.81l-.45,1.2a5.37,5.37,0,0,1-1.35-.16,5.63,5.63,0,0,1-1.19-.45,5.1,5.1,0,0,1-1-.68,5.34,5.34,0,0,1-.8-.85,4.81,4.81,0,0,1-.58-1,4.35,4.35,0,0,1-.31-1c-.31,0-.61,0-.89,0l-.87,0v-1.38h.8l.91-.05a13.8,13.8,0,0,1,.14-1.62,7.48,7.48,0,0,1,.31-1.24,3.59,3.59,0,0,1,.51-1,2.63,2.63,0,0,1,.64-.58,2.26,2.26,0,0,1,.69-.29A3.07,3.07,0,0,1,200.48,133.8Zm-1.55,4.58.47-.1.47-.12a4.21,4.21,0,0,0,1.11-.48,2.24,2.24,0,0,0,.57-.49,1.06,1.06,0,0,0,.21-.45,2.13,2.13,0,0,0,0-.3,1.28,1.28,0,0,0-.31-1,1.36,1.36,0,0,0-1-.31,1.43,1.43,0,0,0-.52.11,1.17,1.17,0,0,0-.47.45,3.5,3.5,0,0,0-.36,1A9.19,9.19,0,0,0,198.93,138.38Z"/><path class="cls-8" d="M207.81,134.08l.06.23c0,.13.06.29.1.47s.08.39.12.62l.12.68c0,.23.06.46.08.67a4,4,0,0,1,0,.56,2.92,2.92,0,0,1-.23,1.2,2.38,2.38,0,0,1-.6.84,2.45,2.45,0,0,1-.82.49,2.7,2.7,0,0,1-.92.16H203.9v-1.38h1.86l.3,0a.91.91,0,0,0,.4-.16,1.11,1.11,0,0,0,.35-.39,1.5,1.5,0,0,0,.15-.73c0-.11,0-.24,0-.41s0-.33-.07-.52a5.62,5.62,0,0,0-.09-.57c0-.2-.07-.38-.1-.56s-.07-.33-.1-.47a2.28,2.28,0,0,0-.07-.3Zm-2.4-3,1.24-1.26,1.27,1.27-1.26,1.25Z"/></g></g></g></g></g></g></svg>