<svg xmlns="http://www.w3.org/2000/svg" viewBox="0 0 528 188"><defs><style>.cls-1{fill:#fc8839;}.cls-2,.cls-5,.cls-6,.cls-7{isolation:isolate;}.cls-3,.cls-6{fill:#fff;}.cls-4,.cls-7{fill:none;}.cls-4{stroke:#fc8839;stroke-linecap:round;stroke-linejoin:round;stroke-width:10px;}.cls-5{opacity:0.85;}.cls-6{font-size:16px;font-family:IRANYekanMobile-Bold, IRANYekanMobile;font-weight:700;}.cls-7{stroke:#fff;stroke-width:2px;opacity:0.58;}</style></defs><g id="Layer_2" data-name="Layer 2"><g id="Layer_1-2" data-name="Layer 1"><g id="b-30-2"><g id="Group_2276-2" data-name="Group 2276-2"><rect id="Rectangle_2237-2" data-name="Rectangle 2237-2" class="cls-1" width="528" height="188"/></g><g id="Group_13066-2" data-name="Group 13066-2"><g id="Group_13072-2" data-name="Group 13072-2"><g class="cls-2"><g class="cls-2"><path class="cls-3" d="M306.81,86.13l-.22.06c-.14,0-.32,0-.54.08-.57.1-1.22.2-1.94.29-2.2.29-4.54.5-7.05.63-.82,0-1.63,0-2.43,0A36.16,36.16,0,0,1,284,85.78c.2,2.54.31,5.24.35,8.1,0,1.12,0,2.32,0,3.62v5.91h-8.86v-2.7c0-1.06,0-1.92,0-2.56q0-1.49,0-2.76c0-2.17-.07-4.23-.16-6.15a99.73,99.73,0,0,0-1.65-14c-.14-.58-.24-1-.29-1.33h0c-.57-2.68-1.24-5.22-2-7.61l8.42-2.67a88.63,88.63,0,0,1,2.48,9.66c.11.36.2.62.27.79v-.46l0-.49a6.73,6.73,0,0,1,.08-1c.09-.5.2-1,.35-1.54a12.6,12.6,0,0,1,1.81-3.91q3.53-5.13,10.88-5.13a11.93,11.93,0,0,1,4.67.92,20.72,20.72,0,0,1,2,1c.27.16.61.36,1,.59l1.08.65.78.48.41.25.43.24L301.82,73a22.45,22.45,0,0,0-3.08-1.46,11.61,11.61,0,0,0-3.81-.73,4.81,4.81,0,0,0-3,.92,2.87,2.87,0,0,0-1.19,2.08,3.8,3.8,0,0,0,0,.46,3.6,3.6,0,0,0,1.73,3.13,8.24,8.24,0,0,0,4.72,1.16,16.75,16.75,0,0,0,1.95-.11,38.83,38.83,0,0,0,5.53-.89Z"/><path class="cls-3" d="M333.86,78.38a12.71,12.71,0,0,1,3.84,9.24,13.09,13.09,0,0,1-13.07,13.06,13.09,13.09,0,0,1-13.07-13.06,13.06,13.06,0,0,1,22.3-9.24ZM327.6,90.59a4,4,0,0,0,1.24-3,4.23,4.23,0,0,0-4.21-4.21,4,4,0,0,0-3,1.24,4,4,0,0,0-1.24,3,4.2,4.2,0,0,0,7.18,3Z"/></g><g class="cls-2"><path class="cls-3" d="M346.46,77.35l-4.89-4.9,4.87-4.84,4.89,4.89ZM350.74,103h-7.22l13.9-35.42h7.24Zm10.13.11L356,98.18l4.87-4.85,4.9,4.89Z"/></g></g></g><g id="Group_680-2" data-name="Group 680-2"><g id="تخفیف-3" class="cls-2"><g class="cls-2"><path class="cls-4" d="M284.44,113.53a6.37,6.37,0,0,1,1.75,4.57,6.29,6.29,0,0,1-.54,2.64h1.53V125h-1.86a18.89,18.89,0,0,1-5.46-.71,18.07,18.07,0,0,1-5.47.71h-5a35.2,35.2,0,0,1-4.63-.18,4.29,4.29,0,0,1-3-1.91,5.21,5.21,0,0,1-.82-2.26c0-.31-.05-.63-.05-1s0-.75.06-1.15a17.42,17.42,0,0,1,.48-2.27c.07-.31.16-.63.25-1a2.12,2.12,0,0,0,.09-.31.93.93,0,0,1,0-.14l4,1.14a34.07,34.07,0,0,0-.87,3.83,1.34,1.34,0,0,0,0,.2.94.94,0,0,0,.09.43.56.56,0,0,0,.55.33h8.51a6.29,6.29,0,0,1-.54-2.64,6.37,6.37,0,0,1,1.75-4.57,6.43,6.43,0,0,1,9.17,0Zm-7.22-6,2.67-2.69,2.72,2.72-2.71,2.69Zm4.46,11.77a2,2,0,0,0,.39-1.24,2.35,2.35,0,0,0-.51-1.53,2.07,2.07,0,0,0-1.7-.75,2,2,0,0,0-1.69.75,2.31,2.31,0,0,0-.52,1.53,2,2,0,0,0,.4,1.24,2.1,2.1,0,0,0,3.63,0Z"/><path class="cls-4" d="M297,119.57a1.09,1.09,0,0,0,.3.87,1.78,1.78,0,0,0,1.18.3h1.87V125h-1.87a6.71,6.71,0,0,1-1.58-.18,5,5,0,0,1-1.1-.4,3.43,3.43,0,0,1-.89-.56,3.15,3.15,0,0,1-.95.56,7.43,7.43,0,0,1-3.08.58h-4.31v-4.21h4.61a2,2,0,0,0,1.29-.31,1,1,0,0,0,.34-.86v-3.49H297Zm-7.09,12.81-2.52-2.54,2.48-2.57,2.57,2.57Zm5.41,0-2.51-2.54,2.49-2.57,2.56,2.57Z"/><path class="cls-4" d="M311.68,113.53a6.4,6.4,0,0,1,1.74,4.57,6.29,6.29,0,0,1-.54,2.64h1.53V125h-1.86a18.89,18.89,0,0,1-5.46-.71,18,18,0,0,1-5.46.71h-1.86v-4.21h1.52a6.29,6.29,0,0,1-.54-2.64,6.41,6.41,0,0,1,1.75-4.57,6.45,6.45,0,0,1,9.18,0Zm-7.34-5.84L307,105l2.73,2.72-2.71,2.7Zm4.58,11.65a2,2,0,0,0,.38-1.24,2.35,2.35,0,0,0-.51-1.53,2.29,2.29,0,0,0-3.39,0,2.35,2.35,0,0,0-.51,1.53,2,2,0,0,0,.39,1.24,2.11,2.11,0,0,0,3.64,0Z"/><path class="cls-4" d="M321.19,113q1.05.15,5.23,1.31c1,.26,2,.55,3.1.86l2,.58.66,3.7-.38.29-.37.25-.69.52a9.46,9.46,0,0,0,1.85.21l.91,0h.67V125a14.38,14.38,0,0,1-5.61-.78,4.59,4.59,0,0,1-1.61-1.21,14.94,14.94,0,0,1-2.24,1q-3,1-10.85,1v-4.21a52.85,52.85,0,0,0,7.37-.36,12.66,12.66,0,0,0,4.9-1.81l-.94-.26-.89-.25c-.74-.22-1.29-.37-1.66-.46a11.84,11.84,0,0,0-2.13-.47.85.85,0,0,0-.65.4,2.56,2.56,0,0,0-.49,1l-4.07-1.06a6.28,6.28,0,0,1,2.19-3.53,4.69,4.69,0,0,1,2.93-1.07A5.65,5.65,0,0,1,321.19,113Zm-3.4-4.42,2.66-2.69,2.73,2.72-2.71,2.69Z"/><path class="cls-4" d="M344.63,118.43a7,7,0,0,1,.11,1.18,5.2,5.2,0,0,1-1,3.13c-1.06,1.47-2.81,2.21-5.22,2.21h-5v-4.21h4.93a3.11,3.11,0,0,0,1.63-.31,1,1,0,0,0,.49-.93,2.37,2.37,0,0,0-.05-.43c-.09-.44-.17-.88-.26-1.33,0-.17-.07-.36-.1-.56l-.05-.24,0-.24q-.19-1-.3-1.5l4-1.22C344,115.18,344.31,116.67,344.63,118.43Zm-8-6.39-2.51-2.54,2.47-2.57,2.57,2.57Zm5.38,0-2.52-2.55,2.49-2.56,2.57,2.56Z"/></g></g><g id="تخفیف-4" class="cls-2"><g class="cls-2"><path class="cls-3" d="M284.77,114.13a6.38,6.38,0,0,1,1.75,4.57,6.23,6.23,0,0,1-.54,2.64h1.53v4.21h-1.86a18.91,18.91,0,0,1-5.46-.7,18.1,18.1,0,0,1-5.47.7h-5a35.2,35.2,0,0,1-4.63-.18,4.29,4.29,0,0,1-3-1.91,5.21,5.21,0,0,1-.82-2.26c0-.31,0-.63,0-1a11.17,11.17,0,0,1,.06-1.14,17.09,17.09,0,0,1,.48-2.27c.07-.32.16-.64.25-1a2.43,2.43,0,0,0,.09-.3,1.27,1.27,0,0,1,0-.15l4,1.15a34,34,0,0,0-.87,3.82,1.48,1.48,0,0,0,0,.21.93.93,0,0,0,.09.42.56.56,0,0,0,.55.33h8.51a6.23,6.23,0,0,1-.54-2.64,6.38,6.38,0,0,1,1.75-4.57,6.46,6.46,0,0,1,9.17,0Zm-7.22-5.95,2.67-2.7,2.72,2.72-2.71,2.7ZM282,119.94a1.94,1.94,0,0,0,.39-1.24,2.31,2.31,0,0,0-.52-1.53,2.3,2.3,0,0,0-3.38,0,2.31,2.31,0,0,0-.52,1.53,1.94,1.94,0,0,0,.4,1.24,2.1,2.1,0,0,0,3.63,0Z"/><path class="cls-3" d="M297.32,120.18a1.09,1.09,0,0,0,.3.87,1.79,1.79,0,0,0,1.18.29h1.87v4.21H298.8a6.71,6.71,0,0,1-1.58-.18,5,5,0,0,1-1.1-.39,3.42,3.42,0,0,1-.89-.57,3.14,3.14,0,0,1-1,.57,7.59,7.59,0,0,1-3.08.57h-4.31v-4.21h4.61a2.09,2.09,0,0,0,1.29-.3,1,1,0,0,0,.34-.86v-3.49h4.19ZM290.23,133l-2.52-2.54,2.48-2.56,2.57,2.56Zm5.41,0-2.51-2.54,2.49-2.57,2.56,2.57Z"/><path class="cls-3" d="M312,114.13a6.42,6.42,0,0,1,1.74,4.57,6.23,6.23,0,0,1-.54,2.64h1.53v4.21h-1.86a18.91,18.91,0,0,1-5.46-.7,18.07,18.07,0,0,1-5.46.7H300.1v-4.21h1.52a6.23,6.23,0,0,1-.54-2.64,6.42,6.42,0,0,1,1.75-4.57,6.47,6.47,0,0,1,9.18,0Zm-7.34-5.84,2.66-2.69,2.73,2.72L307.35,111Zm4.58,11.65a2,2,0,0,0,.38-1.24,2.35,2.35,0,0,0-.51-1.53,2.31,2.31,0,0,0-3.39,0,2.35,2.35,0,0,0-.51,1.53,1.94,1.94,0,0,0,.39,1.24,2.11,2.11,0,0,0,3.64,0Z"/><path class="cls-3" d="M321.52,113.59q1.05.15,5.23,1.31l3.1.86,2,.58.66,3.71-.38.28-.37.26-.69.51a10.15,10.15,0,0,0,1.85.22l.91,0h.67v4.21a14.38,14.38,0,0,1-5.61-.78,4.47,4.47,0,0,1-1.61-1.21,13.15,13.15,0,0,1-2.24,1q-3,1-10.85,1v-4.21a52.85,52.85,0,0,0,7.37-.36,12.81,12.81,0,0,0,4.9-1.8l-.94-.26-.89-.26c-.74-.21-1.29-.37-1.66-.46a11.45,11.45,0,0,0-2.13-.46.84.84,0,0,0-.65.39,2.55,2.55,0,0,0-.49,1.06l-4.07-1.07a6.28,6.28,0,0,1,2.19-3.53,4.68,4.68,0,0,1,2.93-1.06A5.59,5.59,0,0,1,321.52,113.59Zm-3.41-4.41,2.67-2.7,2.73,2.72-2.71,2.7Z"/><path class="cls-3" d="M345,119a7.1,7.1,0,0,1,.11,1.18,5.23,5.23,0,0,1-1,3.14q-1.6,2.2-5.22,2.2h-5v-4.21h4.93a3.24,3.24,0,0,0,1.63-.3,1,1,0,0,0,.49-.94,2.18,2.18,0,0,0-.05-.42c-.09-.44-.17-.89-.26-1.34,0-.17-.07-.35-.1-.55l0-.25,0-.24q-.19-1-.3-1.5l4-1.22C344.35,115.79,344.64,117.27,345,119Zm-8-6.39-2.51-2.54,2.47-2.57,2.57,2.57Zm5.38,0-2.52-2.54,2.49-2.57,2.57,2.57Z"/></g></g></g><g id="برای_خرید_کتاب_های_متنی_و_صوتی-2" data-name="برای خرید کتاب های متنی و صوتی-2" class="cls-5"><g class="cls-2"><path class="cls-3" d="M195.1,77.1h-.53a2.39,2.39,0,0,1-1.66-.77,1.88,1.88,0,0,1-.51.42,2.8,2.8,0,0,1-.64.27,5.63,5.63,0,0,1-.69.14c-.23,0-.46,0-.67,0l-.5,0-.58-.1-.74-.18-1-.3.47-1.56a7.92,7.92,0,0,0,.82.28c.29.08.56.15.83.2a5.49,5.49,0,0,0,.78.09l.29,0a3.44,3.44,0,0,0,.43,0,1.39,1.39,0,0,0,.45-.14.54.54,0,0,0,.27-.29.43.43,0,0,0,0-.14.56.56,0,0,0,0-.15,1.44,1.44,0,0,0-.11-.2c-.06-.08-.12-.19-.21-.32l-2.32-3.26,1.38-.88L193,73.73c.12.2.26.39.4.6a6.23,6.23,0,0,0,.41.56,4,4,0,0,0,.41.41.57.57,0,0,0,.36.16h.53Z"/><path class="cls-3" d="M199.69,71.61s0,.1.05.22.06.25.1.41.07.35.11.55.07.4.1.6.06.4.08.59a4.92,4.92,0,0,1,0,.51,3,3,0,0,1-.22,1.16,2.36,2.36,0,0,1-.59.81,2.11,2.11,0,0,1-.8.48,2.59,2.59,0,0,1-.9.16h-2.81V75.47h2.86l.22,0a.73.73,0,0,0,.55-.42,1,1,0,0,0,.11-.54,2.24,2.24,0,0,0,0-.35,3.56,3.56,0,0,0-.06-.44l-.09-.48c0-.17-.06-.32-.09-.47s-.06-.28-.09-.4-.06-.21-.08-.27Zm-3.5,9-1.09-1.11,1.07-1.13,1.13,1.13Zm2.74,0-1.1-1.11,1.09-1.12L200,79.54Z"/><path class="cls-3" d="M206.77,77.1h-.25a4.12,4.12,0,0,1-.51,0,1.22,1.22,0,0,1-.46-.19,5.21,5.21,0,0,1-.39,1.53,3.59,3.59,0,0,1-2,1.93,4.52,4.52,0,0,1-1.6.26h-.82V79h.82a3.85,3.85,0,0,0,1.08-.13,1.77,1.77,0,0,0,.75-.42,1.74,1.74,0,0,0,.44-.75,4,4,0,0,0,.14-1.12v-4h1.63v2a.78.78,0,0,0,.13.48,1,1,0,0,0,.29.29,1.2,1.2,0,0,0,.32.13l.22,0h.25Z"/><path class="cls-3" d="M215.52,74.5l-.34.23c-.2.13-.46.3-.79.49s-.72.4-1.16.62-.93.42-1.44.61a13.62,13.62,0,0,1-1.61.46,7.57,7.57,0,0,1-1.7.19h-2V75.47h2a7.45,7.45,0,0,0,1.37-.13,14.14,14.14,0,0,0,1.43-.34,12.38,12.38,0,0,0,1.34-.46,8.43,8.43,0,0,0,1.11-.5l-.65-.2-.72-.21c-.24-.08-.48-.14-.72-.21l-.67-.18-.57-.13a2.13,2.13,0,0,0-.39,0,1,1,0,0,0-.26,0,.72.72,0,0,0-.21.12,1.2,1.2,0,0,0-.17.21c-.05.09-.1.2-.16.32l-1.5-.45a5.47,5.47,0,0,1,.31-.74,2.22,2.22,0,0,1,.44-.6,2,2,0,0,1,.59-.4,1.94,1.94,0,0,1,.78-.14,2.18,2.18,0,0,1,.48.07c.21.05.45.11.71.19s.55.16.86.27l.91.31.89.32.77.28.58.22.3.1Zm-7.21-5.74,1.17-1.18,1.21,1.2L209.5,70Z"/><path class="cls-3" d="M226.69,79.06a6.17,6.17,0,0,0,1-.07,1.85,1.85,0,0,0,.71-.26,1.23,1.23,0,0,0,.43-.5,2,2,0,0,0,.14-.79l-.29-.08-.47-.12-.59-.16-.64-.17-.64-.17-.59-.15a6.07,6.07,0,0,1-.25-.84,4.43,4.43,0,0,1-.08-.8,3.69,3.69,0,0,1,.27-1.41,3.42,3.42,0,0,1,.79-1.15,3.64,3.64,0,0,1,1.24-.78,4.35,4.35,0,0,1,1.66-.29,4.74,4.74,0,0,1,.65.05c.21,0,.46.09.73.16l-.41,1.57c-.2-.06-.38-.1-.53-.13a2.5,2.5,0,0,0-.47,0,2.77,2.77,0,0,0-.92.15,2.07,2.07,0,0,0-.73.4,2,2,0,0,0-.49.66,2,2,0,0,0-.18.87v.08s0,.06,0,.09l2.29.58a1.55,1.55,0,0,1,.91.54,1.49,1.49,0,0,1,.28.93,5.17,5.17,0,0,1-.21,1.56,2.39,2.39,0,0,1-.67,1.08,2.77,2.77,0,0,1-1.19.64,7.07,7.07,0,0,1-1.79.2h-1.38a4.25,4.25,0,0,1-1-.12,3.53,3.53,0,0,1-.92-.36,3.65,3.65,0,0,1-.79-.56,4.22,4.22,0,0,1-.64-.75,4.54,4.54,0,0,1-.64-2.45,6.07,6.07,0,0,1,.06-.85,5.86,5.86,0,0,1,.18-.87c.09-.3.19-.61.32-.94s.29-.68.47-1.06l1.45.7c-.15.32-.28.62-.38.89a7.7,7.7,0,0,0-.27.75,4.5,4.5,0,0,0-.21,1.35,3,3,0,0,0,.42,1.61,2,2,0,0,0,.82.76,2.46,2.46,0,0,0,1.15.26Z"/><path class="cls-3" d="M234.3,77.1h-1.63V67.68h1.63Z"/><path class="cls-3" d="M239.94,77.1h-.25a4,4,0,0,1-.5,0,1.26,1.26,0,0,1-.47-.19,4.65,4.65,0,0,1-.39,1.53,3.5,3.5,0,0,1-.81,1.17,3.59,3.59,0,0,1-1.23.76,4.48,4.48,0,0,1-1.6.26h-.82V79h.82a3.8,3.8,0,0,0,1.08-.13,1.81,1.81,0,0,0,.76-.42,1.73,1.73,0,0,0,.43-.75,3.61,3.61,0,0,0,.15-1.12v-4h1.62v2a.85.85,0,0,0,.13.48,1.14,1.14,0,0,0,.29.29,1.25,1.25,0,0,0,.33.13l.21,0h.25Z"/><path class="cls-3" d="M243.46,71.61a1.65,1.65,0,0,0,0,.22c0,.11.06.25.1.41s.07.35.1.55.08.4.11.6.06.4.08.59a4.92,4.92,0,0,1,0,.51,2.79,2.79,0,0,1-.23,1.16,2.21,2.21,0,0,1-.58.81,2.28,2.28,0,0,1-.8.48,2.59,2.59,0,0,1-.9.16h-1.74V75.47h1.78l.23,0a.89.89,0,0,0,.29-.12.86.86,0,0,0,.26-.3,1.15,1.15,0,0,0,.11-.54c0-.1,0-.22,0-.35l-.06-.44-.09-.48c0-.17-.07-.32-.1-.47s-.06-.28-.09-.4-.05-.21-.07-.27Zm-2.86,7.76,1.18-1.19,1.2,1.2-1.19,1.19Z"/></g><text class="cls-6" transform="translate(239.39 77)"> </text><g class="cls-2"><path class="cls-3" d="M215,96.1a2.59,2.59,0,0,1-.92-.17,2.15,2.15,0,0,1-.76-.47,2,2,0,0,1-.27-.3,1.73,1.73,0,0,1-.25-.42,2.53,2.53,0,0,1-.19-.55,3.47,3.47,0,0,1-.07-.68,3.7,3.7,0,0,1,.07-.71c0-.25.09-.49.14-.72s.11-.42.16-.59l.09-.3.78.25.77.24c0,.11-.08.25-.13.42l-.12.5c0,.17-.07.34-.1.5a2.27,2.27,0,0,0,0,.42,1.15,1.15,0,0,0,.09.5.78.78,0,0,0,.22.3.55.55,0,0,0,.25.13l.29,0h7.78l.23,0a.81.81,0,0,0,.29-.12.86.86,0,0,0,.26-.3,1,1,0,0,0,.11-.54,2.24,2.24,0,0,0,0-.35l-.06-.44-.09-.48c0-.17-.06-.32-.09-.47a1,1,0,0,1,0-.17l1.54-.4s0,0,0,.06.07.35.1.55.08.4.11.6.06.4.08.59a4.92,4.92,0,0,1,0,.51,2.79,2.79,0,0,1-.23,1.16,2.38,2.38,0,0,1-1.38,1.29,2.59,2.59,0,0,1-.9.16Zm2.71,2.18,1.17-1.19,1.2,1.2-1.18,1.19Z"/><path class="cls-3" d="M230.13,96.1a7.41,7.41,0,0,1-1.24-.09,3.59,3.59,0,0,1-.87-.26,1.66,1.66,0,0,1-.56-.44,2.1,2.1,0,0,1-.33-.63,3.79,3.79,0,0,1-.14-.81c0-.3,0-.64,0-1V86.68h1.63v6.19c0,.34,0,.62,0,.83a1,1,0,0,0,.19.49.87.87,0,0,0,.47.23,6.09,6.09,0,0,0,.86,0Z"/><path class="cls-3" d="M236.88,94.47V96.1h-1a3.2,3.2,0,0,1-1-.15,2,2,0,0,1-.77-.45,2.12,2.12,0,0,1-.87.45,3.94,3.94,0,0,1-1.14.15h-2.26V94.47h2.26a2.22,2.22,0,0,0,.64-.07.87.87,0,0,0,.36-.19.56.56,0,0,0,.16-.25,1.24,1.24,0,0,0,0-.27V91.58h1.62v2.07a.78.78,0,0,0,.13.46,1,1,0,0,0,.3.25,1.39,1.39,0,0,0,.33.1h1.19Zm-4.95-4.57-1.1-1.11,1.08-1.12L233,88.79Zm2.73,0-1.09-1.11,1.08-1.12,1.12,1.12Z"/><path class="cls-3" d="M236.62,96.1V94.47h4.1a1.36,1.36,0,0,0,.36,0,1.25,1.25,0,0,0,.31-.12.28.28,0,0,0,.13-.23,1.56,1.56,0,0,0-.22-.68,7.32,7.32,0,0,0-.54-.85,11.6,11.6,0,0,0-.75-.91c-.28-.31-.55-.6-.82-.87s-.53-.51-.77-.72-.43-.36-.58-.47l.14-1.48,5.68-2.59.59,1.42L239.47,89l.56.55c.21.2.42.42.64.65l.65.71c.21.24.41.49.6.74a8,8,0,0,1,.51.72,4.77,4.77,0,0,1,.35.66,3.06,3.06,0,0,1,.15.53,2.79,2.79,0,0,1,0,.47,2,2,0,0,1,0,.45,1.94,1.94,0,0,1-.11.34,1.85,1.85,0,0,1-.69.81,3.22,3.22,0,0,1-.74.32,4,4,0,0,1-1.06.13Z"/></g><text class="cls-6" transform="translate(200.09 96)">‌</text><g class="cls-2"><path class="cls-3" d="M192.54,98.06a6.17,6.17,0,0,0,1-.07,2,2,0,0,0,.72-.26,1.13,1.13,0,0,0,.42-.5,2.22,2.22,0,0,0,.15-.79l-.29-.08-.47-.12-.59-.16-.65-.17-.64-.17-.58-.15a4.18,4.18,0,0,1-.25-.84,3.66,3.66,0,0,1,.19-2.21,3.26,3.26,0,0,1,.78-1.15,3.69,3.69,0,0,1,1.25-.78,4.33,4.33,0,0,1,1.65-.29,4.62,4.62,0,0,1,.65.05l.74.16-.42,1.57c-.2-.06-.38-.1-.53-.13a2.42,2.42,0,0,0-.47,0,2.67,2.67,0,0,0-.91.15,2,2,0,0,0-.73.4,1.9,1.9,0,0,0-.49.66,2,2,0,0,0-.18.87v.17l2.3.58a1.52,1.52,0,0,1,.9.54,1.49,1.49,0,0,1,.28.93,5.53,5.53,0,0,1-.2,1.56,2.48,2.48,0,0,1-.67,1.08,2.87,2.87,0,0,1-1.2.64,7,7,0,0,1-1.79.2h-1.37a4.34,4.34,0,0,1-1-.12,4,4,0,0,1-1.71-.92,3.8,3.8,0,0,1-.63-.75,4.55,4.55,0,0,1-.65-2.45,6.07,6.07,0,0,1,.06-.85,5.93,5.93,0,0,1,.19-.87,8.72,8.72,0,0,1,.32-.94c.13-.33.29-.68.47-1.06l1.45.7c-.15.32-.28.62-.39.89a7.7,7.7,0,0,0-.27.75,4.77,4.77,0,0,0-.15.69,3.67,3.67,0,0,0-.05.66,3,3,0,0,0,.41,1.61,2.07,2.07,0,0,0,.82.76,2.47,2.47,0,0,0,1.16.26Z"/><path class="cls-3" d="M201.7,96.1a7.2,7.2,0,0,1-1.23-.09,3.33,3.33,0,0,1-.87-.26,1.61,1.61,0,0,1-.57-.44,1.87,1.87,0,0,1-.32-.63,4.5,4.5,0,0,1-.15-.81c0-.3,0-.64,0-1V86.68h1.62v6.19a6.28,6.28,0,0,0,0,.83.87.87,0,0,0,.19.49.8.8,0,0,0,.46.23,6.19,6.19,0,0,0,.86,0Z"/><path class="cls-3" d="M207.78,89l.86,1.14.39.51.42.55.41.55.4.52a2.84,2.84,0,0,1,.52,1.18,2.45,2.45,0,0,1,0,.46,2.56,2.56,0,0,1-.13.82,2.39,2.39,0,0,1-.39.72,2.18,2.18,0,0,1-.61.56,2.93,2.93,0,0,1-.82.37,3.65,3.65,0,0,1-1,.13,5.47,5.47,0,0,1-1-.09,4.37,4.37,0,0,1-1-.36l-.22-.1-.21-.1-.17-.09a7.76,7.76,0,0,1-1.39.28,14.44,14.44,0,0,1-1.68.09h-.74V94.47H203l.29,0a3.52,3.52,0,0,1-.31-.39,2.5,2.5,0,0,1-.23-.39,1.89,1.89,0,0,1-.14-.44,2.59,2.59,0,0,1,0-.51,2.27,2.27,0,0,1,.21-1,2.19,2.19,0,0,1,.57-.78,2.65,2.65,0,0,1,.85-.5,3.19,3.19,0,0,1,1-.17,2.41,2.41,0,0,1,1.13.25,2.94,2.94,0,0,1,.83.63,3,3,0,0,1,.51.83,2.37,2.37,0,0,1,.17.83,2.49,2.49,0,0,1-.06.57,2.35,2.35,0,0,1-.17.49,2.2,2.2,0,0,1-.28.44q-.16.21-.36.42l.41.12a2.18,2.18,0,0,0,.42,0l.43,0a2.17,2.17,0,0,0,.42-.11,1.24,1.24,0,0,0,.35-.25,1,1,0,0,0,.23-.41.58.58,0,0,0,0-.19,1.32,1.32,0,0,0-.11-.45,3.6,3.6,0,0,0-.38-.7,11.51,11.51,0,0,0-.69-.94l-.9-1.12-.68-.84Zm-3.66,3.76a1.14,1.14,0,0,0,.08.43.93.93,0,0,0,.23.34,2,2,0,0,0,.38.31l.52.31a2.5,2.5,0,0,0,.39-.23,1.49,1.49,0,0,0,.33-.27,1.32,1.32,0,0,0,.23-.35,1.12,1.12,0,0,0,0-.9,1.15,1.15,0,0,0-1-.61,1,1,0,0,0-.42.08,1.23,1.23,0,0,0-.37.21,1.26,1.26,0,0,0-.25.31A.81.81,0,0,0,204.12,92.72Z"/></g><g class="cls-2"><path class="cls-3" d="M174.85,115.1h-1.74a2.34,2.34,0,0,1,.25.47,1.44,1.44,0,0,1,.09.47,2,2,0,0,1-.33,1.1,2.8,2.8,0,0,1-.9.84,4.62,4.62,0,0,1-1.32.53,6.46,6.46,0,0,1-1.61.19h-1.67a4.25,4.25,0,0,1-1-.12,3.53,3.53,0,0,1-.92-.36,3.65,3.65,0,0,1-.79-.56,4.22,4.22,0,0,1-.64-.75,4.54,4.54,0,0,1-.64-2.45,8.06,8.06,0,0,1,0-.85,7.4,7.4,0,0,1,.17-.87,6.76,6.76,0,0,1,.3-.94c.12-.32.28-.67.46-1l1.45.7c-.15.32-.28.61-.38.88s-.18.52-.25.75a6.38,6.38,0,0,0-.13.69,4.87,4.87,0,0,0,0,.66,3,3,0,0,0,.42,1.61,2,2,0,0,0,.82.76,2.46,2.46,0,0,0,1.15.26h1.67a4.59,4.59,0,0,0,.93-.09,3.16,3.16,0,0,0,.77-.25,2.07,2.07,0,0,0,.54-.38.84.84,0,0,0,.25-.46,1.72,1.72,0,0,0-.48-.34,5.06,5.06,0,0,0-.66-.24,6.34,6.34,0,0,0-.8-.14c-.29,0-.58-.06-.89-.07l0-1.62h5.86Z"/><path class="cls-3" d="M178,109.61s0,.1.05.22.06.25.1.41.07.35.1.55.08.4.11.6.06.4.08.59a4.92,4.92,0,0,1,0,.51,2.79,2.79,0,0,1-.23,1.16,2.21,2.21,0,0,1-.58.81,2.28,2.28,0,0,1-.8.48,2.59,2.59,0,0,1-.9.16h-2.82v-1.63H176l.23,0a.81.81,0,0,0,.29-.12.86.86,0,0,0,.26-.3,1,1,0,0,0,.11-.54,2.24,2.24,0,0,0,0-.35l-.06-.44-.09-.48c0-.17-.07-.32-.1-.47s-.06-.28-.09-.4,0-.21-.07-.27Zm-3.35-1.26-1.1-1.11,1.08-1.13,1.12,1.13Zm2.73,0-1.09-1.11,1.08-1.12,1.12,1.12Z"/><path class="cls-3" d="M180.72,117a8.86,8.86,0,0,0,.93,0,6.26,6.26,0,0,0,.72-.1,3.36,3.36,0,0,0,.56-.18,1.91,1.91,0,0,0,.41-.26,1.57,1.57,0,0,0,.42-.51,2.29,2.29,0,0,0,.16-.79h-1a5.16,5.16,0,0,1-.67,0,3.46,3.46,0,0,1-.65-.18,3.08,3.08,0,0,1-.59-.33,2.12,2.12,0,0,1-.49-.5,2.73,2.73,0,0,1-.32-.71,3.21,3.21,0,0,1-.12-.92,3.84,3.84,0,0,1,.07-.8,3.77,3.77,0,0,1,.2-.62,2.63,2.63,0,0,1,.27-.47l.29-.35a2.8,2.8,0,0,1,.89-.6,2.72,2.72,0,0,1,1.07-.21,2.82,2.82,0,0,1,1.22.24,2.3,2.3,0,0,1,.83.68,3,3,0,0,1,.47,1,5.17,5.17,0,0,1,.15,1.28v.89h1.11v1.63h-1.12a3.75,3.75,0,0,1-.31,1.51,3,3,0,0,1-.87,1.07,4.22,4.22,0,0,1-.65.41,5.2,5.2,0,0,1-.79.29,6.41,6.41,0,0,1-1,.17,11.17,11.17,0,0,1-1.21,0Zm2.15-6a1.16,1.16,0,0,0-.88.35,1.52,1.52,0,0,0-.33,1.08,1,1,0,0,0,.12.49,1,1,0,0,0,.29.33,1.32,1.32,0,0,0,.4.18,1.74,1.74,0,0,0,.45.06h1v-.89a2.86,2.86,0,0,0-.06-.63,1.73,1.73,0,0,0-.15-.44,1.08,1.08,0,0,0-.45-.44A.7.7,0,0,0,183,111Z"/><path class="cls-3" d="M186.33,115.1v-1.63h.81a2.22,2.22,0,0,0,.64-.07.89.89,0,0,0,.35-.19.56.56,0,0,0,.16-.26,1,1,0,0,0,0-.3v-2.07H190v2.07a.64.64,0,0,0,.05.23,1.28,1.28,0,0,0,.11.2.75.75,0,0,0,.17.14.44.44,0,0,0,.19.07l.14-.24c.17-.28.36-.57.55-.86s.4-.58.61-.85a8.34,8.34,0,0,1,.68-.76,4.45,4.45,0,0,1,.77-.62,3.54,3.54,0,0,1,.85-.42,3,3,0,0,1,1-.15,3.9,3.9,0,0,1,1,.14,2.36,2.36,0,0,1,.9.47,2.61,2.61,0,0,1,.64.89,3.48,3.48,0,0,1,.24,1.38,3.07,3.07,0,0,1-.26,1.32,2.49,2.49,0,0,1-.68.87,2.6,2.6,0,0,1-.93.49,3.52,3.52,0,0,1-1,.15H190.7a3.7,3.7,0,0,1-.57-.07,2.07,2.07,0,0,1-.55-.17,1.22,1.22,0,0,1-.44-.34,3.14,3.14,0,0,1-1.95.59ZM195,111a1.78,1.78,0,0,0-.79.2,4.27,4.27,0,0,0-.79.54,6.32,6.32,0,0,0-.75.79,8.68,8.68,0,0,0-.66.93H195a2.2,2.2,0,0,0,.5-.06,1.46,1.46,0,0,0,.46-.2,1.38,1.38,0,0,0,.35-.37,1.09,1.09,0,0,0,.13-.57,1.55,1.55,0,0,0-.11-.61,1.1,1.1,0,0,0-.31-.39,1.22,1.22,0,0,0-.43-.2A2.1,2.1,0,0,0,195,111Z"/><path class="cls-3" d="M204.17,117a8.74,8.74,0,0,0,.93,0,6.26,6.26,0,0,0,.72-.1,3.36,3.36,0,0,0,.56-.18,1.69,1.69,0,0,0,.41-.26,1.46,1.46,0,0,0,.42-.51,2.08,2.08,0,0,0,.16-.79h-1a5.16,5.16,0,0,1-.67,0,3.69,3.69,0,0,1-.65-.18,3.08,3.08,0,0,1-.59-.33,2.12,2.12,0,0,1-.49-.5,2.73,2.73,0,0,1-.32-.71,3.21,3.21,0,0,1-.12-.92,3.84,3.84,0,0,1,.07-.8,3.77,3.77,0,0,1,.2-.62,3.42,3.42,0,0,1,.27-.47l.29-.35a2.8,2.8,0,0,1,.89-.6,2.72,2.72,0,0,1,1.07-.21,2.82,2.82,0,0,1,1.22.24,2.3,2.3,0,0,1,.83.68,3,3,0,0,1,.47,1,5.17,5.17,0,0,1,.15,1.28v2.32a4,4,0,0,1-.29,1.64,3.08,3.08,0,0,1-.9,1.14,4.22,4.22,0,0,1-.65.41,4.83,4.83,0,0,1-.79.29,6.41,6.41,0,0,1-1,.17,11.17,11.17,0,0,1-1.21,0Zm2.15-6a1.16,1.16,0,0,0-.88.35,1.52,1.52,0,0,0-.33,1.08,1,1,0,0,0,.12.49,1,1,0,0,0,.29.33,1.32,1.32,0,0,0,.4.18,1.74,1.74,0,0,0,.45.06h1v-.89a2.86,2.86,0,0,0-.06-.63,1.73,1.73,0,0,0-.15-.44.71.71,0,0,0-.22-.28.8.8,0,0,0-.23-.16.7.7,0,0,0-.22-.07Z"/><path class="cls-3" d="M226,115.1h-1.74a2.34,2.34,0,0,1,.25.47,1.47,1.47,0,0,1,.1.47,1.88,1.88,0,0,1-.34,1.1,2.8,2.8,0,0,1-.9.84,4.62,4.62,0,0,1-1.32.53,6.38,6.38,0,0,1-1.6.19h-1.68a4.31,4.31,0,0,1-1-.12,4,4,0,0,1-1.71-.92,3.8,3.8,0,0,1-.63-.75,4.46,4.46,0,0,1-.65-2.45,6.06,6.06,0,0,1,.05-.85,7.3,7.3,0,0,1,.16-.87c.08-.3.18-.61.3-.94s.28-.67.46-1l1.45.7c-.15.32-.28.61-.38.88a7.13,7.13,0,0,0-.24.75,4.69,4.69,0,0,0-.14.69q0,.33,0,.66a2.94,2.94,0,0,0,.41,1.61,2.07,2.07,0,0,0,.82.76,2.46,2.46,0,0,0,1.15.26h1.68a4.56,4.56,0,0,0,.92-.09,3.25,3.25,0,0,0,.78-.25,2.07,2.07,0,0,0,.54-.38.77.77,0,0,0,.24-.46,1.72,1.72,0,0,0-.48-.34,4.58,4.58,0,0,0-.66-.24,6,6,0,0,0-.8-.14c-.28,0-.58-.06-.89-.07l.05-1.62H226Z"/><path class="cls-3" d="M230.13,113.47v1.63h-.42a3.24,3.24,0,0,1-1-.15,2,2,0,0,1-.77-.45,2.15,2.15,0,0,1-.86.45,4,4,0,0,1-1.14.15h-1.16v-1.63h1.16a2.19,2.19,0,0,0,.63-.07.87.87,0,0,0,.36-.19.49.49,0,0,0,.16-.25,1.24,1.24,0,0,0,0-.27v-2.11h1.62v2.07a.72.72,0,0,0,.14.46.86.86,0,0,0,.29.25,1.39,1.39,0,0,0,.33.1h.64Zm-3.77-5.9,1.18-1.18,1.2,1.2-1.19,1.19Z"/><path class="cls-3" d="M236.88,113.47v1.63h-1a3.2,3.2,0,0,1-1-.15,1.89,1.89,0,0,1-.77-.45,2.26,2.26,0,0,1-.87.45,3.94,3.94,0,0,1-1.14.15h-2.26v-1.63h2.26a2.22,2.22,0,0,0,.64-.07.87.87,0,0,0,.36-.19.47.47,0,0,0,.15-.25.84.84,0,0,0,0-.27v-2.11h1.62v2.07a.72.72,0,0,0,.13.46,1,1,0,0,0,.3.25,1.39,1.39,0,0,0,.33.1h1.18Zm-4.95-4.57-1.09-1.11,1.07-1.12,1.13,1.12Zm2.74,0-1.1-1.11,1.09-1.12,1.12,1.12Z"/><path class="cls-3" d="M240.91,109.47a2.71,2.71,0,0,1,1.2.25,2.36,2.36,0,0,1,.84.69,2.74,2.74,0,0,1,.51,1,4.08,4.08,0,0,1,.16,1.17,4.91,4.91,0,0,1-.11,1.16,3.25,3.25,0,0,1-.31.79,1.76,1.76,0,0,1-.44.49,2,2,0,0,1-.49.27,2.12,2.12,0,0,1-.47.11l-.4,0a3.18,3.18,0,0,1-.62-.06,3.59,3.59,0,0,1-.59-.18,4.34,4.34,0,0,1-.63-.28l-.72-.37a1.54,1.54,0,0,1-.63.44,2.05,2.05,0,0,1-.78.14h-.81v-1.63h.82a.44.44,0,0,0,.25-.08,1,1,0,0,0,.19-.24,2.14,2.14,0,0,0,.17-.37c.05-.15.1-.31.15-.49s.19-.64.31-1a4,4,0,0,1,.49-.91,2.41,2.41,0,0,1,.77-.68A2.36,2.36,0,0,1,240.91,109.47Zm.56,4.39a.8.8,0,0,0,.19,0,.46.46,0,0,0,.25-.14,1,1,0,0,0,.24-.36,2.06,2.06,0,0,0,.1-.69,1.7,1.7,0,0,0-.07-.44,1.84,1.84,0,0,0-.21-.51,1.4,1.4,0,0,0-.41-.43,1.11,1.11,0,0,0-.65-.18.82.82,0,0,0-.56.2,1.88,1.88,0,0,0-.36.5,4.18,4.18,0,0,0-.25.65,5.93,5.93,0,0,1-.22.64l.52.28c.18.09.35.18.53.25l.49.18A1.35,1.35,0,0,0,241.47,113.86Z"/></g></g><line id="Line_1-2" data-name="Line 1-2" class="cls-7" x1="254.36" y1="59.5" x2="254.36" y2="126.5"/></g></g></g></g></svg>